<?xml version="1.0" encoding="utf-8"?>
<svg xmlns="http://www.w3.org/2000/svg" xmlns:xlink="http://www.w3.org/1999/xlink" style="background: rgb(241, 242, 243); display: block; position: relative; shape-rendering: auto;" width="271" height="271" preserveAspectRatio="xMidYMid" viewBox="0 0 271 271"><g transform="scale(1.06)">


<defs><g id="id-0.7285885185219878"><!--Generator: Adobe Illustrator 21.0.0, SVG Export Plug-In . SVG Version: 6.00 Build 0)--><style type="text/css">.st37{stroke-linecap:round;stroke-linejoin:round;stroke-miterlimit:10;fill:#e15b64;stroke:#333;stroke-width:3.5}</style><path class="st37" d="M56.172,82.307c-4.115-1.131-8.23-1.131-12.345,0c-2.888,0.794-5.99,0.724-8.669-0.615 c-6.565-3.283-9.41-11.579-4.715-18.064l8.561-11.824c5.35-7.39,16.343-7.438,21.759-0.097l8.727,11.832 c4.78,6.479,1.958,14.836-4.629,18.144C62.179,83.03,59.068,83.103,56.172,82.307z" data-fill="c1" data-stroke="c2" style="fill: rgb(234, 234, 234); stroke: rgb(84, 183, 196);"></path><path class="st37" d="M46.696,28.451c0.892,7.819-2.119,12.705-8.015,13.378s-9.931-3.409-10.823-11.228 c-0.892-7.819,3.614-12.876,8.015-13.378S45.803,20.632,46.696,28.451z" data-fill="c1" data-stroke="c2" style="fill: rgb(234, 234, 234); stroke: rgb(84, 183, 196);"></path><path class="st37" d="M26.288,44.147c4.044,5.721,3.785,10.824-0.529,13.874c-4.314,3.049-9.211,1.591-13.255-4.13 s-2.692-11.597,0.529-13.874S22.244,38.426,26.288,44.147z" data-fill="c1" data-stroke="c2" style="fill: rgb(234, 234, 234); stroke: rgb(84, 183, 196);"></path><path class="st37" d="M73.712,44.147c-4.044,5.721-3.785,10.824,0.529,13.874c4.314,3.049,9.211,1.591,13.255-4.13 s2.692-11.597-0.529-13.874S77.756,38.426,73.712,44.147z" data-fill="c1" data-stroke="c2" style="fill: rgb(234, 234, 234); stroke: rgb(84, 183, 196);"></path><path class="st37" d="M53.304,28.451c-0.892,7.819,2.119,12.705,8.015,13.378s9.931-3.409,10.823-11.228s-3.614-12.876-8.015-13.378 C59.726,16.721,54.197,20.632,53.304,28.451z" data-fill="c1" data-stroke="c2" style="fill: rgb(234, 234, 234); stroke: rgb(84, 183, 196);"></path><metadata xmlns:d="https://loading.io/stock/"><d:name>paw</d:name><d:tags>paw,cat,claw,nail,meow,trace,trail,footprint,animal</d:tags><d:license>by</d:license><d:slug>mf2cex</d:slug></metadata></g></defs>

<!-- Generator: Adobe Illustrator 21.0.0, SVG Export Plug-In . SVG Version: 6.00 Build 0)  -->






<g data-idx="0" data-dup="" dx="-128" dy="-128" style="transform-origin: 64px 63.9996px; animation: 3.57143s linear 0s infinite normal forwards running breath-013d02b5-7822-4c0d-8366-420a044e66e6;"><g transform="translate(-128,-128)"><g transform=" translate(192,191.9995) scale(0.8888888888888888)"><g data-icon="" transform="scale(1.1800000000000002)">  <use xlink:href="#id-0.7285885185219878" x="-50" y="-50"></use>
</g></g></g></g><g data-idx="0" data-dup="" dx="128" dy="-128" style="transform-origin: 320px 63.9996px; animation: 3.57143s linear 0s infinite normal forwards running breath-013d02b5-7822-4c0d-8366-420a044e66e6;"><g transform="translate(128,-128)"><g transform=" translate(192,191.9995) scale(0.8888888888888888)"><g data-icon="" transform="scale(1.1800000000000002)">  <use xlink:href="#id-0.7285885185219878" x="-50" y="-50"></use>
</g></g></g></g><g data-idx="1" data-dup="" dx="-128" dy="-128" style="transform-origin: -64px -64.0003px; animation: 3.57143s linear 0s infinite normal forwards running breath-013d02b5-7822-4c0d-8366-420a044e66e6;"><g transform="translate(-128,-128)"><g transform=" translate(64,63.9995) scale(0.8888888888888888)"><g data-icon="" transform="scale(1.1800000000000002)">  <use xlink:href="#id-0.7285885185219878" x="-50" y="-50"></use>
</g></g></g></g><g data-idx="1" data-dup="" dx="128" dy="-128" style="transform-origin: 192px -64.0003px; animation: 3.57143s linear 0s infinite normal forwards running breath-013d02b5-7822-4c0d-8366-420a044e66e6;"><g transform="translate(128,-128)"><g transform=" translate(64,63.9995) scale(0.8888888888888888)"><g data-icon="" transform="scale(1.1800000000000002)">  <use xlink:href="#id-0.7285885185219878" x="-50" y="-50"></use>
</g></g></g></g><g data-idx="0" data-dup="" dx="-128" dy="128" style="transform-origin: 64px 320px; animation: 3.57143s linear 0s infinite normal forwards running breath-013d02b5-7822-4c0d-8366-420a044e66e6;"><g transform="translate(-128,128)"><g transform=" translate(192,191.9995) scale(0.8888888888888888)"><g data-icon="" transform="scale(1.1800000000000002)">  <use xlink:href="#id-0.7285885185219878" x="-50" y="-50"></use>
</g></g></g></g><g data-idx="0" data-dup="" dx="128" dy="128" style="transform-origin: 320px 320px; animation: 3.57143s linear 0s infinite normal forwards running breath-013d02b5-7822-4c0d-8366-420a044e66e6;"><g transform="translate(128,128)"><g transform=" translate(192,191.9995) scale(0.8888888888888888)"><g data-icon="" transform="scale(1.1800000000000002)">  <use xlink:href="#id-0.7285885185219878" x="-50" y="-50"></use>
</g></g></g></g><g data-idx="1" data-dup="" dx="-128" dy="128" style="transform-origin: -64px 192px; animation: 3.57143s linear 0s infinite normal forwards running breath-013d02b5-7822-4c0d-8366-420a044e66e6;"><g transform="translate(-128,128)"><g transform=" translate(64,63.9995) scale(0.8888888888888888)"><g data-icon="" transform="scale(1.1800000000000002)">  <use xlink:href="#id-0.7285885185219878" x="-50" y="-50"></use>
</g></g></g></g><g data-idx="1" data-dup="" dx="128" dy="128" style="transform-origin: 192px 192px; animation: 3.57143s linear 0s infinite normal forwards running breath-013d02b5-7822-4c0d-8366-420a044e66e6;"><g transform="translate(128,128)"><g transform=" translate(64,63.9995) scale(0.8888888888888888)"><g data-icon="" transform="scale(1.1800000000000002)">  <use xlink:href="#id-0.7285885185219878" x="-50" y="-50"></use>
</g></g></g></g></g><style id="breath-013d02b5-7822-4c0d-8366-420a044e66e6" data-anikit="">@keyframes breath-013d02b5-7822-4c0d-8366-420a044e66e6
{
  0% {
    animation-timing-function: cubic-bezier(0.9647,0.2413,-0.0705,0.7911);
    transform: scale(0.9099999999999999);
  }
  51% {
    animation-timing-function: cubic-bezier(0.9226,0.2631,-0.0308,0.7628);
    transform: scale(1.02994);
  }
  100% {
    transform: scale(0.9099999999999999);
  }
}</style></svg>