<?xml version="1.0" encoding="utf-8"?>
<svg xmlns="http://www.w3.org/2000/svg" xmlns:xlink="http://www.w3.org/1999/xlink" style="background: rgb(238, 238, 238); display: block; position: relative; shape-rendering: auto;" width="151" height="151" preserveAspectRatio="xMidYMid" viewBox="0 0 151 151"><g transform="scale(0.59)">


<defs><g id="id-0.3436860376983908"><!--Generator: Adobe Illustrator 21.0.0, SVG Export Plug-In . SVG Version: 6.00 Build 0)--><style type="text/css">.st37{stroke-linecap:round;stroke-linejoin:round;stroke-miterlimit:10;fill:#e15b64;stroke:#333;stroke-width:3.5}</style><path class="st37" d="M56.172,82.307c-4.115-1.131-8.23-1.131-12.345,0c-2.888,0.794-5.99,0.724-8.669-0.615 c-6.565-3.283-9.41-11.579-4.715-18.064l8.561-11.824c5.35-7.39,16.343-7.438,21.759-0.097l8.727,11.832 c4.78,6.479,1.958,14.836-4.629,18.144C62.179,83.03,59.068,83.103,56.172,82.307z" data-fill="c1" data-stroke="c2" style="fill: rgb(245, 241, 241); stroke: rgb(88, 188, 198);"></path><path class="st37" d="M46.696,28.451c0.892,7.819-2.119,12.705-8.015,13.378s-9.931-3.409-10.823-11.228 c-0.892-7.819,3.614-12.876,8.015-13.378S45.803,20.632,46.696,28.451z" data-fill="c1" data-stroke="c2" style="fill: rgb(245, 241, 241); stroke: rgb(88, 188, 198);"></path><path class="st37" d="M26.288,44.147c4.044,5.721,3.785,10.824-0.529,13.874c-4.314,3.049-9.211,1.591-13.255-4.13 s-2.692-11.597,0.529-13.874S22.244,38.426,26.288,44.147z" data-fill="c1" data-stroke="c2" style="fill: rgb(245, 241, 241); stroke: rgb(88, 188, 198);"></path><path class="st37" d="M73.712,44.147c-4.044,5.721-3.785,10.824,0.529,13.874c4.314,3.049,9.211,1.591,13.255-4.13 s2.692-11.597-0.529-13.874S77.756,38.426,73.712,44.147z" data-fill="c1" data-stroke="c2" style="fill: rgb(245, 241, 241); stroke: rgb(88, 188, 198);"></path><path class="st37" d="M53.304,28.451c-0.892,7.819,2.119,12.705,8.015,13.378s9.931-3.409,10.823-11.228s-3.614-12.876-8.015-13.378 C59.726,16.721,54.197,20.632,53.304,28.451z" data-fill="c1" data-stroke="c2" style="fill: rgb(245, 241, 241); stroke: rgb(88, 188, 198);"></path><metadata xmlns:d="https://loading.io/stock/"><d:name>paw</d:name><d:tags>paw,cat,claw,nail,meow,trace,trail,footprint,animal</d:tags><d:license>by</d:license><d:slug>mf2cex</d:slug></metadata></g></defs>

<!-- Generator: Adobe Illustrator 21.0.0, SVG Export Plug-In . SVG Version: 6.00 Build 0)  -->


















<g data-idx="0" data-dup="" dx="-128" dy="-128" style="transform-origin: -43.697px -33.235px; animation: 11.1111s linear 0s infinite normal forwards running move-btt-c3db6de2-440c-4a59-a3dc-7c8b7a832470;"><g transform="translate(-128,-128)"><polygon fill="#B3B4B4" points="95.261,98.953 73.345,96.2 74.22,90.577 94.461,93.724 " data-fill="c3" style="fill: rgb(179, 180, 180);"></polygon></g></g><g data-idx="0" data-dup="" dx="128" dy="-128" style="transform-origin: 212.303px -33.235px; animation: 11.1111s linear 0s infinite normal forwards running move-btt-c3db6de2-440c-4a59-a3dc-7c8b7a832470;"><g transform="translate(128,-128)"><polygon fill="#B3B4B4" points="95.261,98.953 73.345,96.2 74.22,90.577 94.461,93.724 " data-fill="c3" style="fill: rgb(179, 180, 180);"></polygon></g></g><g data-idx="1" data-dup="" dx="-128" dy="-128" style="transform-origin: -89.899px 85.4716px; animation: 11.1111s linear 0s infinite normal forwards running move-btt-c3db6de2-440c-4a59-a3dc-7c8b7a832470;"><g transform="translate(-128,-128)"><path fill="#B3B4B4" d="M38.105,224.49c-0.05,0-0.099,0-0.149-0.001c-2.943-0.039-5.694-1.221-7.748-3.33
	c-4.239-4.352-4.147-11.342,0.205-15.581c2.108-2.054,4.884-3.157,7.833-3.124c2.943,0.039,5.694,1.222,7.748,3.33
	c4.239,4.352,4.147,11.342-0.205,15.58C43.716,223.383,40.992,224.49,38.105,224.49z M38.098,207.494
	c-1.567,0-3.044,0.6-4.169,1.695c-2.361,2.3-2.411,6.092-0.111,8.453c1.114,1.144,2.607,1.785,4.204,1.806
	c1.609,0.014,3.106-0.581,4.25-1.695c2.361-2.3,2.411-6.092,0.112-8.453l0,0c-1.114-1.144-2.607-1.785-4.204-1.806
	C38.152,207.494,38.125,207.494,38.098,207.494z" data-fill="c3" style="fill: rgb(179, 180, 180);"></path></g></g><g data-idx="1" data-dup="" dx="128" dy="-128" style="transform-origin: 166.101px 85.4716px; animation: 11.1111s linear 0s infinite normal forwards running move-btt-c3db6de2-440c-4a59-a3dc-7c8b7a832470;"><g transform="translate(128,-128)"><path fill="#B3B4B4" d="M38.105,224.49c-0.05,0-0.099,0-0.149-0.001c-2.943-0.039-5.694-1.221-7.748-3.33
	c-4.239-4.352-4.147-11.342,0.205-15.581c2.108-2.054,4.884-3.157,7.833-3.124c2.943,0.039,5.694,1.222,7.748,3.33
	c4.239,4.352,4.147,11.342-0.205,15.58C43.716,223.383,40.992,224.49,38.105,224.49z M38.098,207.494
	c-1.567,0-3.044,0.6-4.169,1.695c-2.361,2.3-2.411,6.092-0.111,8.453c1.114,1.144,2.607,1.785,4.204,1.806
	c1.609,0.014,3.106-0.581,4.25-1.695c2.361-2.3,2.411-6.092,0.112-8.453l0,0c-1.114-1.144-2.607-1.785-4.204-1.806
	C38.152,207.494,38.125,207.494,38.098,207.494z" data-fill="c3" style="fill: rgb(179, 180, 180);"></path></g></g><g data-idx="2" data-dup="" dx="-128" dy="-128" style="transform-origin: 106.49px -80.4995px; animation: 11.1111s linear 0s infinite normal forwards running move-btt-c3db6de2-440c-4a59-a3dc-7c8b7a832470;"><g transform="translate(-128,-128)"><ellipse transform="matrix(0.7249 -0.6888 0.6888 0.7249 31.7828 174.5914)" fill="#B3B4B4" cx="234.5" cy="47.5" rx="4.4" ry="4.4" data-fill="c3" style="fill: rgb(179, 180, 180);"></ellipse></g></g><g data-idx="2" data-dup="" dx="128" dy="-128" style="transform-origin: 362.49px -80.4995px; animation: 11.1111s linear 0s infinite normal forwards running move-btt-c3db6de2-440c-4a59-a3dc-7c8b7a832470;"><g transform="translate(128,-128)"><ellipse transform="matrix(0.7249 -0.6888 0.6888 0.7249 31.7828 174.5914)" fill="#B3B4B4" cx="234.5" cy="47.5" rx="4.4" ry="4.4" data-fill="c3" style="fill: rgb(179, 180, 180);"></ellipse></g></g><g data-idx="3" data-dup="" dx="-128" dy="-128" style="transform-origin: 28.5333px 18.653px; animation: 11.1111s linear 0s infinite normal forwards running move-btt-c3db6de2-440c-4a59-a3dc-7c8b7a832470;"><g transform="translate(-128,-128)"><path fill="#B3B4B4" d="M156.299,159.176l-1.714-5.053c3.929-1.333,6.042-5.614,4.709-9.543c-0.645-1.903-1.994-3.442-3.796-4.331
	c-1.803-0.89-3.844-1.024-5.747-0.378l-1.714-5.053c3.254-1.103,6.741-0.874,9.822,0.646c3.08,1.52,5.385,4.149,6.488,7.402
	C166.625,149.582,163.015,156.898,156.299,159.176z" data-fill="c3" style="fill: rgb(179, 180, 180);"></path></g></g><g data-idx="3" data-dup="" dx="128" dy="-128" style="transform-origin: 284.533px 18.653px; animation: 11.1111s linear 0s infinite normal forwards running move-btt-c3db6de2-440c-4a59-a3dc-7c8b7a832470;"><g transform="translate(128,-128)"><path fill="#B3B4B4" d="M156.299,159.176l-1.714-5.053c3.929-1.333,6.042-5.614,4.709-9.543c-0.645-1.903-1.994-3.442-3.796-4.331
	c-1.803-0.89-3.844-1.024-5.747-0.378l-1.714-5.053c3.254-1.103,6.741-0.874,9.822,0.646c3.08,1.52,5.385,4.149,6.488,7.402
	C166.625,149.582,163.015,156.898,156.299,159.176z" data-fill="c3" style="fill: rgb(179, 180, 180);"></path></g></g><g data-idx="4" data-dup="" dx="-128" dy="-128" style="transform-origin: -25.5058px 21.495px; animation: 11.1111s linear 0s infinite normal forwards running move-btt-c3db6de2-440c-4a59-a3dc-7c8b7a832470;"><g transform="translate(-128,-128)"><ellipse transform="matrix(0.7249 -0.6888 0.6888 0.7249 -74.7837 111.7244)" fill="#B3B4B4" cx="102.5" cy="149.5" rx="4.4" ry="4.4" data-fill="c3" style="fill: rgb(179, 180, 180);"></ellipse></g></g><g data-idx="4" data-dup="" dx="128" dy="-128" style="transform-origin: 230.494px 21.495px; animation: 11.1111s linear 0s infinite normal forwards running move-btt-c3db6de2-440c-4a59-a3dc-7c8b7a832470;"><g transform="translate(128,-128)"><ellipse transform="matrix(0.7249 -0.6888 0.6888 0.7249 -74.7837 111.7244)" fill="#B3B4B4" cx="102.5" cy="149.5" rx="4.4" ry="4.4" data-fill="c3" style="fill: rgb(179, 180, 180);"></ellipse></g></g><g data-idx="5" data-dup="" dx="-128" dy="-128" style="transform-origin: 114.171px 116.691px; animation: 11.1111s linear 0s infinite normal forwards running move-btt-c3db6de2-440c-4a59-a3dc-7c8b7a832470;"><g transform="translate(-128,-128)"><polygon fill="#B3B4B4" points="231.486,249.178 247.065,235.877 252.857,238.786 235.18,253.505 " data-fill="c3" style="fill: rgb(179, 180, 180);"></polygon></g></g><g data-idx="5" data-dup="" dx="128" dy="-128" style="transform-origin: 370.171px 116.691px; animation: 11.1111s linear 0s infinite normal forwards running move-btt-c3db6de2-440c-4a59-a3dc-7c8b7a832470;"><g transform="translate(128,-128)"><polygon fill="#B3B4B4" points="231.486,249.178 247.065,235.877 252.857,238.786 235.18,253.505 " data-fill="c3" style="fill: rgb(179, 180, 180);"></polygon></g></g><g data-idx="6" data-dup="" dx="-128" dy="-128" style="transform-origin: -20.197px -96.9315px; animation: 11.1111s linear 0s infinite normal forwards running move-btt-c3db6de2-440c-4a59-a3dc-7c8b7a832470;"><g transform="translate(-128,-128)"><polygon fill="#B3B4B4" points="115.367,21.954 103.961,43.014 100.239,36.891 110.431,19.123 " data-fill="c3" style="fill: rgb(179, 180, 180);"></polygon></g></g><g data-idx="6" data-dup="" dx="128" dy="-128" style="transform-origin: 235.803px -96.9315px; animation: 11.1111s linear 0s infinite normal forwards running move-btt-c3db6de2-440c-4a59-a3dc-7c8b7a832470;"><g transform="translate(128,-128)"><polygon fill="#B3B4B4" points="115.367,21.954 103.961,43.014 100.239,36.891 110.431,19.123 " data-fill="c3" style="fill: rgb(179, 180, 180);"></polygon></g></g><g data-idx="7" data-dup="" dx="-128" dy="-128" style="transform-origin: 94.1px -7.15031px; animation: 11.1111s linear 0s infinite normal forwards running move-btt-c3db6de2-440c-4a59-a3dc-7c8b7a832470;"><g transform="translate(-128,-128)"><path fill="#B3B4B4" d="M222.104,130.57c-0.044,0-0.088,0-0.132-0.001c-2.596-0.034-5.024-1.077-6.835-2.937
	c-3.74-3.84-3.659-10.006,0.181-13.746c1.86-1.812,4.308-2.785,6.91-2.756c2.596,0.034,5.024,1.078,6.835,2.938
	c3.74,3.839,3.659,10.006-0.181,13.745C227.054,129.594,224.651,130.57,222.104,130.57z M222.099,115.576
	c-1.382,0-2.686,0.53-3.678,1.496c-2.083,2.029-2.127,5.374-0.098,7.458c0.983,1.009,2.3,1.575,3.708,1.594
	c1.42,0.013,2.74-0.512,3.749-1.495c2.083-2.029,2.127-5.374,0.098-7.457l0,0c-0.983-1.009-2.3-1.575-3.708-1.594
	C222.146,115.576,222.122,115.576,222.099,115.576z" data-fill="c3" style="fill: rgb(179, 180, 180);"></path></g></g><g data-idx="7" data-dup="" dx="128" dy="-128" style="transform-origin: 350.1px -7.15031px; animation: 11.1111s linear 0s infinite normal forwards running move-btt-c3db6de2-440c-4a59-a3dc-7c8b7a832470;"><g transform="translate(128,-128)"><path fill="#B3B4B4" d="M222.104,130.57c-0.044,0-0.088,0-0.132-0.001c-2.596-0.034-5.024-1.077-6.835-2.937
	c-3.74-3.84-3.659-10.006,0.181-13.746c1.86-1.812,4.308-2.785,6.91-2.756c2.596,0.034,5.024,1.078,6.835,2.938
	c3.74,3.839,3.659,10.006-0.181,13.745C227.054,129.594,224.651,130.57,222.104,130.57z M222.099,115.576
	c-1.382,0-2.686,0.53-3.678,1.496c-2.083,2.029-2.127,5.374-0.098,7.458c0.983,1.009,2.3,1.575,3.708,1.594
	c1.42,0.013,2.74-0.512,3.749-1.495c2.083-2.029,2.127-5.374,0.098-7.457l0,0c-0.983-1.009-2.3-1.575-3.708-1.594
	C222.146,115.576,222.122,115.576,222.099,115.576z" data-fill="c3" style="fill: rgb(179, 180, 180);"></path></g></g><g data-idx="8" data-dup="" dx="-128" dy="-128" style="transform-origin: 46.6647px -119.158px; animation: 11.1111s linear 0s infinite normal forwards running move-btt-c3db6de2-440c-4a59-a3dc-7c8b7a832470;"><g transform="translate(-128,-128)"><path fill="#B3B4B4" d="M184.509,10.022l-4.015,1.058c-0.822-3.122-4.032-4.993-7.154-4.17c-1.512,0.398-2.779,1.362-3.567,2.713
	c-0.788,1.352-1.003,2.929-0.603,4.44l-4.015,1.058c-0.681-2.585-0.315-5.28,1.031-7.589c1.346-2.309,3.511-3.956,6.096-4.637
	C177.619,1.489,183.103,4.687,184.509,10.022z" data-fill="c3" style="fill: rgb(179, 180, 180);"></path></g></g><g data-idx="8" data-dup="" dx="128" dy="-128" style="transform-origin: 302.665px -119.158px; animation: 11.1111s linear 0s infinite normal forwards running move-btt-c3db6de2-440c-4a59-a3dc-7c8b7a832470;"><g transform="translate(128,-128)"><path fill="#B3B4B4" d="M184.509,10.022l-4.015,1.058c-0.822-3.122-4.032-4.993-7.154-4.17c-1.512,0.398-2.779,1.362-3.567,2.713
	c-0.788,1.352-1.003,2.929-0.603,4.44l-4.015,1.058c-0.681-2.585-0.315-5.28,1.031-7.589c1.346-2.309,3.511-3.956,6.096-4.637
	C177.619,1.489,183.103,4.687,184.509,10.022z" data-fill="c3" style="fill: rgb(179, 180, 180);"></path></g></g><g data-idx="9" data-dup="" dx="-128" dy="-128" style="transform-origin: -6.92413px 94.3994px; animation: 11.1111s linear 0s infinite normal forwards running move-btt-c3db6de2-440c-4a59-a3dc-7c8b7a832470;"><g transform="translate(-128,-128)"><g transform="matrix(0.9912 0.1325 -0.1325 0.9912 30.542 -14.083) translate(121.067,222.398) scale(0.6786666666666666)"><g data-icon="" transform="scale(0.9)">  <use xlink:href="#id-0.3436860376983908" x="-50" y="-50"></use>
</g></g></g></g><g data-idx="9" data-dup="" dx="128" dy="-128" style="transform-origin: 249.076px 94.3994px; animation: 11.1111s linear 0s infinite normal forwards running move-btt-c3db6de2-440c-4a59-a3dc-7c8b7a832470;"><g transform="translate(128,-128)"><g transform="matrix(0.9912 0.1325 -0.1325 0.9912 30.542 -14.083) translate(121.067,222.398) scale(0.6786666666666666)"><g data-icon="" transform="scale(0.9)">  <use xlink:href="#id-0.3436860376983908" x="-50" y="-50"></use>
</g></g></g></g><g data-idx="10" data-dup="" dx="-128" dy="-128" style="transform-origin: 33.2568px -52.8258px; animation: 11.1111s linear 0s infinite normal forwards running move-btt-c3db6de2-440c-4a59-a3dc-7c8b7a832470;"><g transform="translate(-128,-128)"><g transform="matrix(-0.0456 0.999 -0.999 -0.0456 243.7065 -82.5047) translate(161.268,75.17099999999999) scale(0.47706666666666664)"><g data-icon="" transform="scale(0.9)">  <use xlink:href="#id-0.3436860376983908" x="-50" y="-50"></use>
</g></g></g></g><g data-idx="10" data-dup="" dx="128" dy="-128" style="transform-origin: 289.257px -52.8258px; animation: 11.1111s linear 0s infinite normal forwards running move-btt-c3db6de2-440c-4a59-a3dc-7c8b7a832470;"><g transform="translate(128,-128)"><g transform="matrix(-0.0456 0.999 -0.999 -0.0456 243.7065 -82.5047) translate(161.268,75.17099999999999) scale(0.47706666666666664)"><g data-icon="" transform="scale(0.9)">  <use xlink:href="#id-0.3436860376983908" x="-50" y="-50"></use>
</g></g></g></g><g data-idx="11" data-dup="" dx="-128" dy="-128" style="transform-origin: 87.3083px 65.0825px; animation: 11.1111s linear 0s infinite normal forwards running move-btt-c3db6de2-440c-4a59-a3dc-7c8b7a832470;"><g transform="translate(-128,-128)"><g transform="matrix(0.5905 -0.8071 0.8071 0.5905 -67.6584 252.8308) translate(215.293,193.0815) scale(0.5214666666666667)"><g data-icon="" transform="scale(0.9)">  <use xlink:href="#id-0.3436860376983908" x="-50" y="-50"></use>
</g></g></g></g><g data-idx="11" data-dup="" dx="128" dy="-128" style="transform-origin: 343.308px 65.0825px; animation: 11.1111s linear 0s infinite normal forwards running move-btt-c3db6de2-440c-4a59-a3dc-7c8b7a832470;"><g transform="translate(128,-128)"><g transform="matrix(0.5905 -0.8071 0.8071 0.5905 -67.6584 252.8308) translate(215.293,193.0815) scale(0.5214666666666667)"><g data-icon="" transform="scale(0.9)">  <use xlink:href="#id-0.3436860376983908" x="-50" y="-50"></use>
</g></g></g></g><g data-idx="12" data-dup="" dx="-128" dy="-128" style="transform-origin: -78.8149px -89.6957px; animation: 11.1111s linear 0s infinite normal forwards running move-btt-c3db6de2-440c-4a59-a3dc-7c8b7a832470;"><g transform="translate(-128,-128)"><g transform="matrix(-0.4749 -0.8801 0.8801 -0.4749 38.8277 99.7848) translate(49.185,38.308499999999995) scale(0.5980444444444444)"><g data-icon="" transform="scale(0.9)">  <use xlink:href="#id-0.3436860376983908" x="-50" y="-50"></use>
</g></g></g></g><g data-idx="12" data-dup="" dx="128" dy="-128" style="transform-origin: 177.185px -89.6957px; animation: 11.1111s linear 0s infinite normal forwards running move-btt-c3db6de2-440c-4a59-a3dc-7c8b7a832470;"><g transform="translate(128,-128)"><g transform="matrix(-0.4749 -0.8801 0.8801 -0.4749 38.8277 99.7848) translate(49.185,38.308499999999995) scale(0.5980444444444444)"><g data-icon="" transform="scale(0.9)">  <use xlink:href="#id-0.3436860376983908" x="-50" y="-50"></use>
</g></g></g></g><g data-idx="13" data-dup="" dx="-128" dy="-128" style="transform-origin: -89.5674px 14.2467px; animation: 11.1111s linear 0s infinite normal forwards running move-btt-c3db6de2-440c-4a59-a3dc-7c8b7a832470;"><g transform="translate(-128,-128)"><g transform="matrix(0.7381 -0.6747 0.6747 0.7381 -85.9069 63.1885) translate(38.434,142.243) scale(0.607688888888889)"><g data-icon="" transform="scale(0.9)">  <use xlink:href="#id-0.3436860376983908" x="-50" y="-50"></use>
</g></g></g></g><g data-idx="13" data-dup="" dx="128" dy="-128" style="transform-origin: 166.433px 14.2467px; animation: 11.1111s linear 0s infinite normal forwards running move-btt-c3db6de2-440c-4a59-a3dc-7c8b7a832470;"><g transform="translate(128,-128)"><g transform="matrix(0.7381 -0.6747 0.6747 0.7381 -85.9069 63.1885) translate(38.434,142.243) scale(0.607688888888889)"><g data-icon="" transform="scale(0.9)">  <use xlink:href="#id-0.3436860376983908" x="-50" y="-50"></use>
</g></g></g></g><g data-idx="0" data-dup="" dx="-128" dy="128" style="transform-origin: -43.697px 222.765px; animation: 11.1111s linear 0s infinite normal forwards running move-btt-c3db6de2-440c-4a59-a3dc-7c8b7a832470;"><g transform="translate(-128,128)"><polygon fill="#B3B4B4" points="95.261,98.953 73.345,96.2 74.22,90.577 94.461,93.724 " data-fill="c3" style="fill: rgb(179, 180, 180);"></polygon></g></g><g data-idx="0" data-dup="" dx="128" dy="128" style="transform-origin: 212.303px 222.765px; animation: 11.1111s linear 0s infinite normal forwards running move-btt-c3db6de2-440c-4a59-a3dc-7c8b7a832470;"><g transform="translate(128,128)"><polygon fill="#B3B4B4" points="95.261,98.953 73.345,96.2 74.22,90.577 94.461,93.724 " data-fill="c3" style="fill: rgb(179, 180, 180);"></polygon></g></g><g data-idx="1" data-dup="" dx="-128" dy="128" style="transform-origin: -89.899px 341.472px; animation: 11.1111s linear 0s infinite normal forwards running move-btt-c3db6de2-440c-4a59-a3dc-7c8b7a832470;"><g transform="translate(-128,128)"><path fill="#B3B4B4" d="M38.105,224.49c-0.05,0-0.099,0-0.149-0.001c-2.943-0.039-5.694-1.221-7.748-3.33
	c-4.239-4.352-4.147-11.342,0.205-15.581c2.108-2.054,4.884-3.157,7.833-3.124c2.943,0.039,5.694,1.222,7.748,3.33
	c4.239,4.352,4.147,11.342-0.205,15.58C43.716,223.383,40.992,224.49,38.105,224.49z M38.098,207.494
	c-1.567,0-3.044,0.6-4.169,1.695c-2.361,2.3-2.411,6.092-0.111,8.453c1.114,1.144,2.607,1.785,4.204,1.806
	c1.609,0.014,3.106-0.581,4.25-1.695c2.361-2.3,2.411-6.092,0.112-8.453l0,0c-1.114-1.144-2.607-1.785-4.204-1.806
	C38.152,207.494,38.125,207.494,38.098,207.494z" data-fill="c3" style="fill: rgb(179, 180, 180);"></path></g></g><g data-idx="1" data-dup="" dx="128" dy="128" style="transform-origin: 166.101px 341.472px; animation: 11.1111s linear 0s infinite normal forwards running move-btt-c3db6de2-440c-4a59-a3dc-7c8b7a832470;"><g transform="translate(128,128)"><path fill="#B3B4B4" d="M38.105,224.49c-0.05,0-0.099,0-0.149-0.001c-2.943-0.039-5.694-1.221-7.748-3.33
	c-4.239-4.352-4.147-11.342,0.205-15.581c2.108-2.054,4.884-3.157,7.833-3.124c2.943,0.039,5.694,1.222,7.748,3.33
	c4.239,4.352,4.147,11.342-0.205,15.58C43.716,223.383,40.992,224.49,38.105,224.49z M38.098,207.494
	c-1.567,0-3.044,0.6-4.169,1.695c-2.361,2.3-2.411,6.092-0.111,8.453c1.114,1.144,2.607,1.785,4.204,1.806
	c1.609,0.014,3.106-0.581,4.25-1.695c2.361-2.3,2.411-6.092,0.112-8.453l0,0c-1.114-1.144-2.607-1.785-4.204-1.806
	C38.152,207.494,38.125,207.494,38.098,207.494z" data-fill="c3" style="fill: rgb(179, 180, 180);"></path></g></g><g data-idx="2" data-dup="" dx="-128" dy="128" style="transform-origin: 106.49px 175.501px; animation: 11.1111s linear 0s infinite normal forwards running move-btt-c3db6de2-440c-4a59-a3dc-7c8b7a832470;"><g transform="translate(-128,128)"><ellipse transform="matrix(0.7249 -0.6888 0.6888 0.7249 31.7828 174.5914)" fill="#B3B4B4" cx="234.5" cy="47.5" rx="4.4" ry="4.4" data-fill="c3" style="fill: rgb(179, 180, 180);"></ellipse></g></g><g data-idx="2" data-dup="" dx="128" dy="128" style="transform-origin: 362.49px 175.501px; animation: 11.1111s linear 0s infinite normal forwards running move-btt-c3db6de2-440c-4a59-a3dc-7c8b7a832470;"><g transform="translate(128,128)"><ellipse transform="matrix(0.7249 -0.6888 0.6888 0.7249 31.7828 174.5914)" fill="#B3B4B4" cx="234.5" cy="47.5" rx="4.4" ry="4.4" data-fill="c3" style="fill: rgb(179, 180, 180);"></ellipse></g></g><g data-idx="3" data-dup="" dx="-128" dy="128" style="transform-origin: 28.5333px 274.653px; animation: 11.1111s linear 0s infinite normal forwards running move-btt-c3db6de2-440c-4a59-a3dc-7c8b7a832470;"><g transform="translate(-128,128)"><path fill="#B3B4B4" d="M156.299,159.176l-1.714-5.053c3.929-1.333,6.042-5.614,4.709-9.543c-0.645-1.903-1.994-3.442-3.796-4.331
	c-1.803-0.89-3.844-1.024-5.747-0.378l-1.714-5.053c3.254-1.103,6.741-0.874,9.822,0.646c3.08,1.52,5.385,4.149,6.488,7.402
	C166.625,149.582,163.015,156.898,156.299,159.176z" data-fill="c3" style="fill: rgb(179, 180, 180);"></path></g></g><g data-idx="3" data-dup="" dx="128" dy="128" style="transform-origin: 284.533px 274.653px; animation: 11.1111s linear 0s infinite normal forwards running move-btt-c3db6de2-440c-4a59-a3dc-7c8b7a832470;"><g transform="translate(128,128)"><path fill="#B3B4B4" d="M156.299,159.176l-1.714-5.053c3.929-1.333,6.042-5.614,4.709-9.543c-0.645-1.903-1.994-3.442-3.796-4.331
	c-1.803-0.89-3.844-1.024-5.747-0.378l-1.714-5.053c3.254-1.103,6.741-0.874,9.822,0.646c3.08,1.52,5.385,4.149,6.488,7.402
	C166.625,149.582,163.015,156.898,156.299,159.176z" data-fill="c3" style="fill: rgb(179, 180, 180);"></path></g></g><g data-idx="4" data-dup="" dx="-128" dy="128" style="transform-origin: -25.5058px 277.495px; animation: 11.1111s linear 0s infinite normal forwards running move-btt-c3db6de2-440c-4a59-a3dc-7c8b7a832470;"><g transform="translate(-128,128)"><ellipse transform="matrix(0.7249 -0.6888 0.6888 0.7249 -74.7837 111.7244)" fill="#B3B4B4" cx="102.5" cy="149.5" rx="4.4" ry="4.4" data-fill="c3" style="fill: rgb(179, 180, 180);"></ellipse></g></g><g data-idx="4" data-dup="" dx="128" dy="128" style="transform-origin: 230.494px 277.495px; animation: 11.1111s linear 0s infinite normal forwards running move-btt-c3db6de2-440c-4a59-a3dc-7c8b7a832470;"><g transform="translate(128,128)"><ellipse transform="matrix(0.7249 -0.6888 0.6888 0.7249 -74.7837 111.7244)" fill="#B3B4B4" cx="102.5" cy="149.5" rx="4.4" ry="4.4" data-fill="c3" style="fill: rgb(179, 180, 180);"></ellipse></g></g><g data-idx="5" data-dup="" dx="-128" dy="128" style="transform-origin: 114.171px 372.691px; animation: 11.1111s linear 0s infinite normal forwards running move-btt-c3db6de2-440c-4a59-a3dc-7c8b7a832470;"><g transform="translate(-128,128)"><polygon fill="#B3B4B4" points="231.486,249.178 247.065,235.877 252.857,238.786 235.18,253.505 " data-fill="c3" style="fill: rgb(179, 180, 180);"></polygon></g></g><g data-idx="5" data-dup="" dx="128" dy="128" style="transform-origin: 370.171px 372.691px; animation: 11.1111s linear 0s infinite normal forwards running move-btt-c3db6de2-440c-4a59-a3dc-7c8b7a832470;"><g transform="translate(128,128)"><polygon fill="#B3B4B4" points="231.486,249.178 247.065,235.877 252.857,238.786 235.18,253.505 " data-fill="c3" style="fill: rgb(179, 180, 180);"></polygon></g></g><g data-idx="6" data-dup="" dx="-128" dy="128" style="transform-origin: -20.197px 159.069px; animation: 11.1111s linear 0s infinite normal forwards running move-btt-c3db6de2-440c-4a59-a3dc-7c8b7a832470;"><g transform="translate(-128,128)"><polygon fill="#B3B4B4" points="115.367,21.954 103.961,43.014 100.239,36.891 110.431,19.123 " data-fill="c3" style="fill: rgb(179, 180, 180);"></polygon></g></g><g data-idx="6" data-dup="" dx="128" dy="128" style="transform-origin: 235.803px 159.069px; animation: 11.1111s linear 0s infinite normal forwards running move-btt-c3db6de2-440c-4a59-a3dc-7c8b7a832470;"><g transform="translate(128,128)"><polygon fill="#B3B4B4" points="115.367,21.954 103.961,43.014 100.239,36.891 110.431,19.123 " data-fill="c3" style="fill: rgb(179, 180, 180);"></polygon></g></g><g data-idx="7" data-dup="" dx="-128" dy="128" style="transform-origin: 94.1px 248.85px; animation: 11.1111s linear 0s infinite normal forwards running move-btt-c3db6de2-440c-4a59-a3dc-7c8b7a832470;"><g transform="translate(-128,128)"><path fill="#B3B4B4" d="M222.104,130.57c-0.044,0-0.088,0-0.132-0.001c-2.596-0.034-5.024-1.077-6.835-2.937
	c-3.74-3.84-3.659-10.006,0.181-13.746c1.86-1.812,4.308-2.785,6.91-2.756c2.596,0.034,5.024,1.078,6.835,2.938
	c3.74,3.839,3.659,10.006-0.181,13.745C227.054,129.594,224.651,130.57,222.104,130.57z M222.099,115.576
	c-1.382,0-2.686,0.53-3.678,1.496c-2.083,2.029-2.127,5.374-0.098,7.458c0.983,1.009,2.3,1.575,3.708,1.594
	c1.42,0.013,2.74-0.512,3.749-1.495c2.083-2.029,2.127-5.374,0.098-7.457l0,0c-0.983-1.009-2.3-1.575-3.708-1.594
	C222.146,115.576,222.122,115.576,222.099,115.576z" data-fill="c3" style="fill: rgb(179, 180, 180);"></path></g></g><g data-idx="7" data-dup="" dx="128" dy="128" style="transform-origin: 350.1px 248.85px; animation: 11.1111s linear 0s infinite normal forwards running move-btt-c3db6de2-440c-4a59-a3dc-7c8b7a832470;"><g transform="translate(128,128)"><path fill="#B3B4B4" d="M222.104,130.57c-0.044,0-0.088,0-0.132-0.001c-2.596-0.034-5.024-1.077-6.835-2.937
	c-3.74-3.84-3.659-10.006,0.181-13.746c1.86-1.812,4.308-2.785,6.91-2.756c2.596,0.034,5.024,1.078,6.835,2.938
	c3.74,3.839,3.659,10.006-0.181,13.745C227.054,129.594,224.651,130.57,222.104,130.57z M222.099,115.576
	c-1.382,0-2.686,0.53-3.678,1.496c-2.083,2.029-2.127,5.374-0.098,7.458c0.983,1.009,2.3,1.575,3.708,1.594
	c1.42,0.013,2.74-0.512,3.749-1.495c2.083-2.029,2.127-5.374,0.098-7.457l0,0c-0.983-1.009-2.3-1.575-3.708-1.594
	C222.146,115.576,222.122,115.576,222.099,115.576z" data-fill="c3" style="fill: rgb(179, 180, 180);"></path></g></g><g data-idx="8" data-dup="" dx="-128" dy="128" style="transform-origin: 46.6647px 136.842px; animation: 11.1111s linear 0s infinite normal forwards running move-btt-c3db6de2-440c-4a59-a3dc-7c8b7a832470;"><g transform="translate(-128,128)"><path fill="#B3B4B4" d="M184.509,10.022l-4.015,1.058c-0.822-3.122-4.032-4.993-7.154-4.17c-1.512,0.398-2.779,1.362-3.567,2.713
	c-0.788,1.352-1.003,2.929-0.603,4.44l-4.015,1.058c-0.681-2.585-0.315-5.28,1.031-7.589c1.346-2.309,3.511-3.956,6.096-4.637
	C177.619,1.489,183.103,4.687,184.509,10.022z" data-fill="c3" style="fill: rgb(179, 180, 180);"></path></g></g><g data-idx="8" data-dup="" dx="128" dy="128" style="transform-origin: 302.665px 136.842px; animation: 11.1111s linear 0s infinite normal forwards running move-btt-c3db6de2-440c-4a59-a3dc-7c8b7a832470;"><g transform="translate(128,128)"><path fill="#B3B4B4" d="M184.509,10.022l-4.015,1.058c-0.822-3.122-4.032-4.993-7.154-4.17c-1.512,0.398-2.779,1.362-3.567,2.713
	c-0.788,1.352-1.003,2.929-0.603,4.44l-4.015,1.058c-0.681-2.585-0.315-5.28,1.031-7.589c1.346-2.309,3.511-3.956,6.096-4.637
	C177.619,1.489,183.103,4.687,184.509,10.022z" data-fill="c3" style="fill: rgb(179, 180, 180);"></path></g></g><g data-idx="9" data-dup="" dx="-128" dy="128" style="transform-origin: -6.92413px 350.399px; animation: 11.1111s linear 0s infinite normal forwards running move-btt-c3db6de2-440c-4a59-a3dc-7c8b7a832470;"><g transform="translate(-128,128)"><g transform="matrix(0.9912 0.1325 -0.1325 0.9912 30.542 -14.083) translate(121.067,222.398) scale(0.6786666666666666)"><g data-icon="" transform="scale(0.9)">  <use xlink:href="#id-0.3436860376983908" x="-50" y="-50"></use>
</g></g></g></g><g data-idx="9" data-dup="" dx="128" dy="128" style="transform-origin: 249.076px 350.399px; animation: 11.1111s linear 0s infinite normal forwards running move-btt-c3db6de2-440c-4a59-a3dc-7c8b7a832470;"><g transform="translate(128,128)"><g transform="matrix(0.9912 0.1325 -0.1325 0.9912 30.542 -14.083) translate(121.067,222.398) scale(0.6786666666666666)"><g data-icon="" transform="scale(0.9)">  <use xlink:href="#id-0.3436860376983908" x="-50" y="-50"></use>
</g></g></g></g><g data-idx="10" data-dup="" dx="-128" dy="128" style="transform-origin: 33.2568px 203.174px; animation: 11.1111s linear 0s infinite normal forwards running move-btt-c3db6de2-440c-4a59-a3dc-7c8b7a832470;"><g transform="translate(-128,128)"><g transform="matrix(-0.0456 0.999 -0.999 -0.0456 243.7065 -82.5047) translate(161.268,75.17099999999999) scale(0.47706666666666664)"><g data-icon="" transform="scale(0.9)">  <use xlink:href="#id-0.3436860376983908" x="-50" y="-50"></use>
</g></g></g></g><g data-idx="10" data-dup="" dx="128" dy="128" style="transform-origin: 289.257px 203.174px; animation: 11.1111s linear 0s infinite normal forwards running move-btt-c3db6de2-440c-4a59-a3dc-7c8b7a832470;"><g transform="translate(128,128)"><g transform="matrix(-0.0456 0.999 -0.999 -0.0456 243.7065 -82.5047) translate(161.268,75.17099999999999) scale(0.47706666666666664)"><g data-icon="" transform="scale(0.9)">  <use xlink:href="#id-0.3436860376983908" x="-50" y="-50"></use>
</g></g></g></g><g data-idx="11" data-dup="" dx="-128" dy="128" style="transform-origin: 87.3083px 321.082px; animation: 11.1111s linear 0s infinite normal forwards running move-btt-c3db6de2-440c-4a59-a3dc-7c8b7a832470;"><g transform="translate(-128,128)"><g transform="matrix(0.5905 -0.8071 0.8071 0.5905 -67.6584 252.8308) translate(215.293,193.0815) scale(0.5214666666666667)"><g data-icon="" transform="scale(0.9)">  <use xlink:href="#id-0.3436860376983908" x="-50" y="-50"></use>
</g></g></g></g><g data-idx="11" data-dup="" dx="128" dy="128" style="transform-origin: 343.308px 321.082px; animation: 11.1111s linear 0s infinite normal forwards running move-btt-c3db6de2-440c-4a59-a3dc-7c8b7a832470;"><g transform="translate(128,128)"><g transform="matrix(0.5905 -0.8071 0.8071 0.5905 -67.6584 252.8308) translate(215.293,193.0815) scale(0.5214666666666667)"><g data-icon="" transform="scale(0.9)">  <use xlink:href="#id-0.3436860376983908" x="-50" y="-50"></use>
</g></g></g></g><g data-idx="12" data-dup="" dx="-128" dy="128" style="transform-origin: -78.8149px 166.304px; animation: 11.1111s linear 0s infinite normal forwards running move-btt-c3db6de2-440c-4a59-a3dc-7c8b7a832470;"><g transform="translate(-128,128)"><g transform="matrix(-0.4749 -0.8801 0.8801 -0.4749 38.8277 99.7848) translate(49.185,38.308499999999995) scale(0.5980444444444444)"><g data-icon="" transform="scale(0.9)">  <use xlink:href="#id-0.3436860376983908" x="-50" y="-50"></use>
</g></g></g></g><g data-idx="12" data-dup="" dx="128" dy="128" style="transform-origin: 177.185px 166.304px; animation: 11.1111s linear 0s infinite normal forwards running move-btt-c3db6de2-440c-4a59-a3dc-7c8b7a832470;"><g transform="translate(128,128)"><g transform="matrix(-0.4749 -0.8801 0.8801 -0.4749 38.8277 99.7848) translate(49.185,38.308499999999995) scale(0.5980444444444444)"><g data-icon="" transform="scale(0.9)">  <use xlink:href="#id-0.3436860376983908" x="-50" y="-50"></use>
</g></g></g></g><g data-idx="13" data-dup="" dx="-128" dy="128" style="transform-origin: -89.5674px 270.247px; animation: 11.1111s linear 0s infinite normal forwards running move-btt-c3db6de2-440c-4a59-a3dc-7c8b7a832470;"><g transform="translate(-128,128)"><g transform="matrix(0.7381 -0.6747 0.6747 0.7381 -85.9069 63.1885) translate(38.434,142.243) scale(0.607688888888889)"><g data-icon="" transform="scale(0.9)">  <use xlink:href="#id-0.3436860376983908" x="-50" y="-50"></use>
</g></g></g></g><g data-idx="13" data-dup="" dx="128" dy="128" style="transform-origin: 166.433px 270.247px; animation: 11.1111s linear 0s infinite normal forwards running move-btt-c3db6de2-440c-4a59-a3dc-7c8b7a832470;"><g transform="translate(128,128)"><g transform="matrix(0.7381 -0.6747 0.6747 0.7381 -85.9069 63.1885) translate(38.434,142.243) scale(0.607688888888889)"><g data-icon="" transform="scale(0.9)">  <use xlink:href="#id-0.3436860376983908" x="-50" y="-50"></use>
</g></g></g></g><g data-idx="0" data-dup="" dx="-128" dy="384" style="transform-origin: -43.697px 478.765px; animation: 11.1111s linear 0s infinite normal forwards running move-btt-c3db6de2-440c-4a59-a3dc-7c8b7a832470;"><g transform="translate(-128,384)"><polygon fill="#B3B4B4" points="95.261,98.953 73.345,96.2 74.22,90.577 94.461,93.724 " data-fill="c3" style="fill: rgb(179, 180, 180);"></polygon></g></g><g data-idx="0" data-dup="" dx="128" dy="384" style="transform-origin: 212.303px 478.765px; animation: 11.1111s linear 0s infinite normal forwards running move-btt-c3db6de2-440c-4a59-a3dc-7c8b7a832470;"><g transform="translate(128,384)"><polygon fill="#B3B4B4" points="95.261,98.953 73.345,96.2 74.22,90.577 94.461,93.724 " data-fill="c3" style="fill: rgb(179, 180, 180);"></polygon></g></g><g data-idx="1" data-dup="" dx="-128" dy="384" style="transform-origin: -89.899px 597.472px; animation: 11.1111s linear 0s infinite normal forwards running move-btt-c3db6de2-440c-4a59-a3dc-7c8b7a832470;"><g transform="translate(-128,384)"><path fill="#B3B4B4" d="M38.105,224.49c-0.05,0-0.099,0-0.149-0.001c-2.943-0.039-5.694-1.221-7.748-3.33
	c-4.239-4.352-4.147-11.342,0.205-15.581c2.108-2.054,4.884-3.157,7.833-3.124c2.943,0.039,5.694,1.222,7.748,3.33
	c4.239,4.352,4.147,11.342-0.205,15.58C43.716,223.383,40.992,224.49,38.105,224.49z M38.098,207.494
	c-1.567,0-3.044,0.6-4.169,1.695c-2.361,2.3-2.411,6.092-0.111,8.453c1.114,1.144,2.607,1.785,4.204,1.806
	c1.609,0.014,3.106-0.581,4.25-1.695c2.361-2.3,2.411-6.092,0.112-8.453l0,0c-1.114-1.144-2.607-1.785-4.204-1.806
	C38.152,207.494,38.125,207.494,38.098,207.494z" data-fill="c3" style="fill: rgb(179, 180, 180);"></path></g></g><g data-idx="1" data-dup="" dx="128" dy="384" style="transform-origin: 166.101px 597.472px; animation: 11.1111s linear 0s infinite normal forwards running move-btt-c3db6de2-440c-4a59-a3dc-7c8b7a832470;"><g transform="translate(128,384)"><path fill="#B3B4B4" d="M38.105,224.49c-0.05,0-0.099,0-0.149-0.001c-2.943-0.039-5.694-1.221-7.748-3.33
	c-4.239-4.352-4.147-11.342,0.205-15.581c2.108-2.054,4.884-3.157,7.833-3.124c2.943,0.039,5.694,1.222,7.748,3.33
	c4.239,4.352,4.147,11.342-0.205,15.58C43.716,223.383,40.992,224.49,38.105,224.49z M38.098,207.494
	c-1.567,0-3.044,0.6-4.169,1.695c-2.361,2.3-2.411,6.092-0.111,8.453c1.114,1.144,2.607,1.785,4.204,1.806
	c1.609,0.014,3.106-0.581,4.25-1.695c2.361-2.3,2.411-6.092,0.112-8.453l0,0c-1.114-1.144-2.607-1.785-4.204-1.806
	C38.152,207.494,38.125,207.494,38.098,207.494z" data-fill="c3" style="fill: rgb(179, 180, 180);"></path></g></g><g data-idx="2" data-dup="" dx="-128" dy="384" style="transform-origin: 106.49px 431.501px; animation: 11.1111s linear 0s infinite normal forwards running move-btt-c3db6de2-440c-4a59-a3dc-7c8b7a832470;"><g transform="translate(-128,384)"><ellipse transform="matrix(0.7249 -0.6888 0.6888 0.7249 31.7828 174.5914)" fill="#B3B4B4" cx="234.5" cy="47.5" rx="4.4" ry="4.4" data-fill="c3" style="fill: rgb(179, 180, 180);"></ellipse></g></g><g data-idx="2" data-dup="" dx="128" dy="384" style="transform-origin: 362.49px 431.501px; animation: 11.1111s linear 0s infinite normal forwards running move-btt-c3db6de2-440c-4a59-a3dc-7c8b7a832470;"><g transform="translate(128,384)"><ellipse transform="matrix(0.7249 -0.6888 0.6888 0.7249 31.7828 174.5914)" fill="#B3B4B4" cx="234.5" cy="47.5" rx="4.4" ry="4.4" data-fill="c3" style="fill: rgb(179, 180, 180);"></ellipse></g></g><g data-idx="3" data-dup="" dx="-128" dy="384" style="transform-origin: 28.5333px 530.653px; animation: 11.1111s linear 0s infinite normal forwards running move-btt-c3db6de2-440c-4a59-a3dc-7c8b7a832470;"><g transform="translate(-128,384)"><path fill="#B3B4B4" d="M156.299,159.176l-1.714-5.053c3.929-1.333,6.042-5.614,4.709-9.543c-0.645-1.903-1.994-3.442-3.796-4.331
	c-1.803-0.89-3.844-1.024-5.747-0.378l-1.714-5.053c3.254-1.103,6.741-0.874,9.822,0.646c3.08,1.52,5.385,4.149,6.488,7.402
	C166.625,149.582,163.015,156.898,156.299,159.176z" data-fill="c3" style="fill: rgb(179, 180, 180);"></path></g></g><g data-idx="3" data-dup="" dx="128" dy="384" style="transform-origin: 284.533px 530.653px; animation: 11.1111s linear 0s infinite normal forwards running move-btt-c3db6de2-440c-4a59-a3dc-7c8b7a832470;"><g transform="translate(128,384)"><path fill="#B3B4B4" d="M156.299,159.176l-1.714-5.053c3.929-1.333,6.042-5.614,4.709-9.543c-0.645-1.903-1.994-3.442-3.796-4.331
	c-1.803-0.89-3.844-1.024-5.747-0.378l-1.714-5.053c3.254-1.103,6.741-0.874,9.822,0.646c3.08,1.52,5.385,4.149,6.488,7.402
	C166.625,149.582,163.015,156.898,156.299,159.176z" data-fill="c3" style="fill: rgb(179, 180, 180);"></path></g></g><g data-idx="4" data-dup="" dx="-128" dy="384" style="transform-origin: -25.5058px 533.495px; animation: 11.1111s linear 0s infinite normal forwards running move-btt-c3db6de2-440c-4a59-a3dc-7c8b7a832470;"><g transform="translate(-128,384)"><ellipse transform="matrix(0.7249 -0.6888 0.6888 0.7249 -74.7837 111.7244)" fill="#B3B4B4" cx="102.5" cy="149.5" rx="4.4" ry="4.4" data-fill="c3" style="fill: rgb(179, 180, 180);"></ellipse></g></g><g data-idx="4" data-dup="" dx="128" dy="384" style="transform-origin: 230.494px 533.495px; animation: 11.1111s linear 0s infinite normal forwards running move-btt-c3db6de2-440c-4a59-a3dc-7c8b7a832470;"><g transform="translate(128,384)"><ellipse transform="matrix(0.7249 -0.6888 0.6888 0.7249 -74.7837 111.7244)" fill="#B3B4B4" cx="102.5" cy="149.5" rx="4.4" ry="4.4" data-fill="c3" style="fill: rgb(179, 180, 180);"></ellipse></g></g><g data-idx="5" data-dup="" dx="-128" dy="384" style="transform-origin: 114.171px 628.691px; animation: 11.1111s linear 0s infinite normal forwards running move-btt-c3db6de2-440c-4a59-a3dc-7c8b7a832470;"><g transform="translate(-128,384)"><polygon fill="#B3B4B4" points="231.486,249.178 247.065,235.877 252.857,238.786 235.18,253.505 " data-fill="c3" style="fill: rgb(179, 180, 180);"></polygon></g></g><g data-idx="5" data-dup="" dx="128" dy="384" style="transform-origin: 370.171px 628.691px; animation: 11.1111s linear 0s infinite normal forwards running move-btt-c3db6de2-440c-4a59-a3dc-7c8b7a832470;"><g transform="translate(128,384)"><polygon fill="#B3B4B4" points="231.486,249.178 247.065,235.877 252.857,238.786 235.18,253.505 " data-fill="c3" style="fill: rgb(179, 180, 180);"></polygon></g></g><g data-idx="6" data-dup="" dx="-128" dy="384" style="transform-origin: -20.197px 415.069px; animation: 11.1111s linear 0s infinite normal forwards running move-btt-c3db6de2-440c-4a59-a3dc-7c8b7a832470;"><g transform="translate(-128,384)"><polygon fill="#B3B4B4" points="115.367,21.954 103.961,43.014 100.239,36.891 110.431,19.123 " data-fill="c3" style="fill: rgb(179, 180, 180);"></polygon></g></g><g data-idx="6" data-dup="" dx="128" dy="384" style="transform-origin: 235.803px 415.069px; animation: 11.1111s linear 0s infinite normal forwards running move-btt-c3db6de2-440c-4a59-a3dc-7c8b7a832470;"><g transform="translate(128,384)"><polygon fill="#B3B4B4" points="115.367,21.954 103.961,43.014 100.239,36.891 110.431,19.123 " data-fill="c3" style="fill: rgb(179, 180, 180);"></polygon></g></g><g data-idx="7" data-dup="" dx="-128" dy="384" style="transform-origin: 94.1px 504.85px; animation: 11.1111s linear 0s infinite normal forwards running move-btt-c3db6de2-440c-4a59-a3dc-7c8b7a832470;"><g transform="translate(-128,384)"><path fill="#B3B4B4" d="M222.104,130.57c-0.044,0-0.088,0-0.132-0.001c-2.596-0.034-5.024-1.077-6.835-2.937
	c-3.74-3.84-3.659-10.006,0.181-13.746c1.86-1.812,4.308-2.785,6.91-2.756c2.596,0.034,5.024,1.078,6.835,2.938
	c3.74,3.839,3.659,10.006-0.181,13.745C227.054,129.594,224.651,130.57,222.104,130.57z M222.099,115.576
	c-1.382,0-2.686,0.53-3.678,1.496c-2.083,2.029-2.127,5.374-0.098,7.458c0.983,1.009,2.3,1.575,3.708,1.594
	c1.42,0.013,2.74-0.512,3.749-1.495c2.083-2.029,2.127-5.374,0.098-7.457l0,0c-0.983-1.009-2.3-1.575-3.708-1.594
	C222.146,115.576,222.122,115.576,222.099,115.576z" data-fill="c3" style="fill: rgb(179, 180, 180);"></path></g></g><g data-idx="7" data-dup="" dx="128" dy="384" style="transform-origin: 350.1px 504.85px; animation: 11.1111s linear 0s infinite normal forwards running move-btt-c3db6de2-440c-4a59-a3dc-7c8b7a832470;"><g transform="translate(128,384)"><path fill="#B3B4B4" d="M222.104,130.57c-0.044,0-0.088,0-0.132-0.001c-2.596-0.034-5.024-1.077-6.835-2.937
	c-3.74-3.84-3.659-10.006,0.181-13.746c1.86-1.812,4.308-2.785,6.91-2.756c2.596,0.034,5.024,1.078,6.835,2.938
	c3.74,3.839,3.659,10.006-0.181,13.745C227.054,129.594,224.651,130.57,222.104,130.57z M222.099,115.576
	c-1.382,0-2.686,0.53-3.678,1.496c-2.083,2.029-2.127,5.374-0.098,7.458c0.983,1.009,2.3,1.575,3.708,1.594
	c1.42,0.013,2.74-0.512,3.749-1.495c2.083-2.029,2.127-5.374,0.098-7.457l0,0c-0.983-1.009-2.3-1.575-3.708-1.594
	C222.146,115.576,222.122,115.576,222.099,115.576z" data-fill="c3" style="fill: rgb(179, 180, 180);"></path></g></g><g data-idx="8" data-dup="" dx="-128" dy="384" style="transform-origin: 46.6647px 392.842px; animation: 11.1111s linear 0s infinite normal forwards running move-btt-c3db6de2-440c-4a59-a3dc-7c8b7a832470;"><g transform="translate(-128,384)"><path fill="#B3B4B4" d="M184.509,10.022l-4.015,1.058c-0.822-3.122-4.032-4.993-7.154-4.17c-1.512,0.398-2.779,1.362-3.567,2.713
	c-0.788,1.352-1.003,2.929-0.603,4.44l-4.015,1.058c-0.681-2.585-0.315-5.28,1.031-7.589c1.346-2.309,3.511-3.956,6.096-4.637
	C177.619,1.489,183.103,4.687,184.509,10.022z" data-fill="c3" style="fill: rgb(179, 180, 180);"></path></g></g><g data-idx="8" data-dup="" dx="128" dy="384" style="transform-origin: 302.665px 392.842px; animation: 11.1111s linear 0s infinite normal forwards running move-btt-c3db6de2-440c-4a59-a3dc-7c8b7a832470;"><g transform="translate(128,384)"><path fill="#B3B4B4" d="M184.509,10.022l-4.015,1.058c-0.822-3.122-4.032-4.993-7.154-4.17c-1.512,0.398-2.779,1.362-3.567,2.713
	c-0.788,1.352-1.003,2.929-0.603,4.44l-4.015,1.058c-0.681-2.585-0.315-5.28,1.031-7.589c1.346-2.309,3.511-3.956,6.096-4.637
	C177.619,1.489,183.103,4.687,184.509,10.022z" data-fill="c3" style="fill: rgb(179, 180, 180);"></path></g></g><g data-idx="9" data-dup="" dx="-128" dy="384" style="transform-origin: -6.92413px 606.399px; animation: 11.1111s linear 0s infinite normal forwards running move-btt-c3db6de2-440c-4a59-a3dc-7c8b7a832470;"><g transform="translate(-128,384)"><g transform="matrix(0.9912 0.1325 -0.1325 0.9912 30.542 -14.083) translate(121.067,222.398) scale(0.6786666666666666)"><g data-icon="" transform="scale(0.9)">  <use xlink:href="#id-0.3436860376983908" x="-50" y="-50"></use>
</g></g></g></g><g data-idx="9" data-dup="" dx="128" dy="384" style="transform-origin: 249.076px 606.399px; animation: 11.1111s linear 0s infinite normal forwards running move-btt-c3db6de2-440c-4a59-a3dc-7c8b7a832470;"><g transform="translate(128,384)"><g transform="matrix(0.9912 0.1325 -0.1325 0.9912 30.542 -14.083) translate(121.067,222.398) scale(0.6786666666666666)"><g data-icon="" transform="scale(0.9)">  <use xlink:href="#id-0.3436860376983908" x="-50" y="-50"></use>
</g></g></g></g><g data-idx="10" data-dup="" dx="-128" dy="384" style="transform-origin: 33.2568px 459.174px; animation: 11.1111s linear 0s infinite normal forwards running move-btt-c3db6de2-440c-4a59-a3dc-7c8b7a832470;"><g transform="translate(-128,384)"><g transform="matrix(-0.0456 0.999 -0.999 -0.0456 243.7065 -82.5047) translate(161.268,75.17099999999999) scale(0.47706666666666664)"><g data-icon="" transform="scale(0.9)">  <use xlink:href="#id-0.3436860376983908" x="-50" y="-50"></use>
</g></g></g></g><g data-idx="10" data-dup="" dx="128" dy="384" style="transform-origin: 289.257px 459.174px; animation: 11.1111s linear 0s infinite normal forwards running move-btt-c3db6de2-440c-4a59-a3dc-7c8b7a832470;"><g transform="translate(128,384)"><g transform="matrix(-0.0456 0.999 -0.999 -0.0456 243.7065 -82.5047) translate(161.268,75.17099999999999) scale(0.47706666666666664)"><g data-icon="" transform="scale(0.9)">  <use xlink:href="#id-0.3436860376983908" x="-50" y="-50"></use>
</g></g></g></g><g data-idx="11" data-dup="" dx="-128" dy="384" style="transform-origin: 87.3083px 577.083px; animation: 11.1111s linear 0s infinite normal forwards running move-btt-c3db6de2-440c-4a59-a3dc-7c8b7a832470;"><g transform="translate(-128,384)"><g transform="matrix(0.5905 -0.8071 0.8071 0.5905 -67.6584 252.8308) translate(215.293,193.0815) scale(0.5214666666666667)"><g data-icon="" transform="scale(0.9)">  <use xlink:href="#id-0.3436860376983908" x="-50" y="-50"></use>
</g></g></g></g><g data-idx="11" data-dup="" dx="128" dy="384" style="transform-origin: 343.308px 577.083px; animation: 11.1111s linear 0s infinite normal forwards running move-btt-c3db6de2-440c-4a59-a3dc-7c8b7a832470;"><g transform="translate(128,384)"><g transform="matrix(0.5905 -0.8071 0.8071 0.5905 -67.6584 252.8308) translate(215.293,193.0815) scale(0.5214666666666667)"><g data-icon="" transform="scale(0.9)">  <use xlink:href="#id-0.3436860376983908" x="-50" y="-50"></use>
</g></g></g></g><g data-idx="12" data-dup="" dx="-128" dy="384" style="transform-origin: -78.8149px 422.304px; animation: 11.1111s linear 0s infinite normal forwards running move-btt-c3db6de2-440c-4a59-a3dc-7c8b7a832470;"><g transform="translate(-128,384)"><g transform="matrix(-0.4749 -0.8801 0.8801 -0.4749 38.8277 99.7848) translate(49.185,38.308499999999995) scale(0.5980444444444444)"><g data-icon="" transform="scale(0.9)">  <use xlink:href="#id-0.3436860376983908" x="-50" y="-50"></use>
</g></g></g></g><g data-idx="12" data-dup="" dx="128" dy="384" style="transform-origin: 177.185px 422.304px; animation: 11.1111s linear 0s infinite normal forwards running move-btt-c3db6de2-440c-4a59-a3dc-7c8b7a832470;"><g transform="translate(128,384)"><g transform="matrix(-0.4749 -0.8801 0.8801 -0.4749 38.8277 99.7848) translate(49.185,38.308499999999995) scale(0.5980444444444444)"><g data-icon="" transform="scale(0.9)">  <use xlink:href="#id-0.3436860376983908" x="-50" y="-50"></use>
</g></g></g></g><g data-idx="13" data-dup="" dx="-128" dy="384" style="transform-origin: -89.5674px 526.247px; animation: 11.1111s linear 0s infinite normal forwards running move-btt-c3db6de2-440c-4a59-a3dc-7c8b7a832470;"><g transform="translate(-128,384)"><g transform="matrix(0.7381 -0.6747 0.6747 0.7381 -85.9069 63.1885) translate(38.434,142.243) scale(0.607688888888889)"><g data-icon="" transform="scale(0.9)">  <use xlink:href="#id-0.3436860376983908" x="-50" y="-50"></use>
</g></g></g></g><g data-idx="13" data-dup="" dx="128" dy="384" style="transform-origin: 166.433px 526.247px; animation: 11.1111s linear 0s infinite normal forwards running move-btt-c3db6de2-440c-4a59-a3dc-7c8b7a832470;"><g transform="translate(128,384)"><g transform="matrix(0.7381 -0.6747 0.6747 0.7381 -85.9069 63.1885) translate(38.434,142.243) scale(0.607688888888889)"><g data-icon="" transform="scale(0.9)">  <use xlink:href="#id-0.3436860376983908" x="-50" y="-50"></use>
</g></g></g></g></g><style id="move-btt-c3db6de2-440c-4a59-a3dc-7c8b7a832470" data-anikit="">@keyframes move-btt-c3db6de2-440c-4a59-a3dc-7c8b7a832470
{
  0% {
    transform: translate(0px,0px) rotate(0deg) scale(1,1) skewX(0deg) skewY(0deg);
  }
  40% {
    transform: translate(0px,-102.4px) rotate(0deg) scale(1,1) skewX(0deg) skewY(0deg);
  }
  49.99999% {
    transform: translate(0px,-127.99997px) rotate(0deg) scale(1,1) skewX(0deg) skewY(0deg);
  }
  50% {
    transform: translate(0px,128px) rotate(0deg) scale(1,1) skewX(0deg) skewY(0deg);
  }
  50.00001% {
    transform: translate(0px,127.99997px) rotate(0deg) scale(1,1) skewX(0deg) skewY(0deg);
  }
  60% {
    transform: translate(0px,102.4px) rotate(0deg) scale(1,1) skewX(0deg) skewY(0deg);
  }
  100% {
    transform: translate(0px,0px) rotate(0deg) scale(1,1) skewX(0deg) skewY(0deg);
  }
}</style></svg>