<?xml version="1.0" encoding="utf-8"?>
<!-- Generator: Adobe Illustrator 24.0.3, SVG Export Plug-In . SVG Version: 6.00 Build 0)  -->
<svg version="1.1" id="Layer_1" xmlns="http://www.w3.org/2000/svg" xmlns:xlink="http://www.w3.org/1999/xlink" x="0px" y="0px"
	 viewBox="0 0 588.5 458.5" style="enable-background:new 0 0 588.5 458.5;" xml:space="preserve">
<style type="text/css">
	.st0{fill:#2E5E69;}
	.st1{fill:#FFFFFF;}
</style>
<title>Artboard 1</title>
<path class="st0" d="M544.7,194.7c0.5,0.3,1.1,0.4,1.7,0.4c5.7-0.8,11.3-1.6,17-2.7c3.5-0.6,6.9-1.9,10.4-2.5
	c2.8-0.5,3.3,0.2,3.5,3.1c0.7,9.3-3.9,15.7-11.6,19.5c-6,3-12.7,4.7-19.2,6.8c-2.9,1-5.9,1.8-8.9,2.5c-5.2,1.2-10.3,2.4-15.5,3.4
	c-9.9,1.9-19.6,4.2-28.3,9.7c-4.2,2.5-7.7,5.8-10.4,9.9c-0.5,0.9-0.7,1.9-0.4,2.9c1.9,3.7,0.4,4.1,0.2,8c-0.1,2.4-2.2,4.1-2.8,7.6
	c-2.3,0-2.7,1.9-2.9,3.7c-0.9,7.2-1.4,14.4-2.5,21.6c-1,7-2.4,13.9-4.3,20.7c-2.2,7.6-4.9,15.1-8,22.5c-2.1,5-5.2,9.6-8.2,14.2
	c-2.1,3.2-1.9,4.2,1.7,5.6c6.5,2.6,13,5.4,19.5,8.1c5.9,2.5,11.8,4.9,17.7,7.4c6.6,2.7,13.2,5.5,19.8,8c7.3,2.8,15.1,4.2,23,3.9
	c7.8-0.3,15.6-1,23.4,0.8c9.8,2.3,18.9,6.1,25.5,14c4,4.8,3.1,8.4-2.7,10.9c-2.3,1-4.7,1.6-7.2,1.9c-10.7,1.4-21.3,0.8-31.9-0.5
	c-11-1.4-22-2.7-32.9-4.5s-21.5-4.6-32.3-6.2c-9.3-1.3-18.7-1.6-28.1-2.2c-0.8,0.1-1.7,0.3-2.5,0.7c0,0.2,0,0.5-0.1,0.7
	c3,1.4,5.9,2.8,8.9,4.1c7.8,3.4,15.5,6.8,23.3,10.2c8.7,3.8,17.3,7.7,26,11.4c5,2.3,10.2,4.3,15.5,6c4.7,1.2,9.4,1.9,14.2,2.2
	c3.7,0.3,7.3,0.3,11,0.1c13.5-0.4,25.7,3.8,37,10.9c1.9,1.4,3.5,3.2,4.6,5.3c1,1.5,0.5,3.5-1,4.5c-0.1,0.1-0.3,0.2-0.5,0.2
	c-3.9,2-7.9,3.7-12.1,5c-4.7,1.3-9.6,1.8-14.4,2.8c-8.8,1.9-17.3,0-25.8-1.5c-9.9-1.9-19.6-4.3-29.5-6.4c-7.5-1.6-14.9-3.4-22.5-4.7
	c-8.2-1.5-16.4-2.7-24.7-3.7c-10.8-1.3-21.7-2.6-32.5-3.3c-18.1-1.2-36.3-2-54.4-2.7c-6.4-0.2-11.5-2.9-16.2-6.8
	c-9.7-8.2-17.3-18.4-25-28.4c-2.4-3.1-4.7-6.2-7-9.4c-1.2-1.7-3.1-2.8-5.2-2.9c-9.9-1-19.9-1.9-29.8-3.2c-10.6-1.3-20.9-4-30.7-8.2
	c-15.6-6.7-28.9-16.5-41-28.2s-22.4-24.8-33.4-37.4c-2-2.3-3.9-4.7-6-7c-0.5-0.6-1.2-0.9-2-0.9c-0.7,0.3-1.2,1-1.4,1.7
	c-2.5,7.4-4.7,14.9-7.3,22.2s-5.8,14.3-8.4,21.6c-3.6,9.8-7.1,19.5-7.7,30.1c-0.7,10.3,2.9,20.4,10.1,27.8c3.2,3.4,7.3,5.3,11.7,6.9
	c2,0.7,3.9,1.3,5.9,2c3.8,1.2,6.3,4.8,6.2,8.8c0.4,3.7-1.6,7.2-4.9,8.8c-7.7,4.1-16,4.1-24.4,3.6c-3.1-0.3-6.3-0.8-9.3-1.5
	c-3.9-0.8-6.4-3.3-8.4-6.7c-6.2-10.7-12.6-21.3-19-31.9c-0.9-1.6-1.8-3.2-2.9-4.7c-0.4-0.8-1.3-1.2-2.1-0.8c-0.5,0.2-0.9,0.7-1,1.3
	c-2.6,11.6-3.1,22.9,4.7,33.1c4.1,5.3,9.7,9.2,16.1,11.3c3.9,1.3,7.6,2.8,9.7,6.8c2.5,4.9,1,10-3.9,12.3c-9.4,4.3-19.3,3.8-29.2,2.5
	c-2.4-0.3-4.8-1.3-7.2-1.9c-3.4-0.8-4.6-3.6-5.9-6.3c-4.1-8.2-8.3-16.3-12-24.6c-3.9-8.7-7.5-17.6-10.7-26.6
	c-1.6-4.8-1.9-9.9-1-14.8c1.5-8.4,2.5-17,3-25.5c0.2-6.6-0.9-13.2-1.9-19.8c-1.5-9.9-6.2-18.7-10.5-27.6c-5.4-11.5-10-23.4-14-35.5
	c-3.2-9.4-4-19-4.3-28.7c-0.2-7.8-1.1-15.7-0.5-23.4c1-12.6,2.7-25.1,4.6-37.6c1.4-9.1,3.7-18.1,5.5-27.1c1.1-5.5,0.5-6.6-4.4-9.4
	c-6.2-3.5-11.2-8.3-16-13.4C24,125,16.5,113,10.2,100.2C5.1,89.6,0.5,78.6,0.1,66.7c-0.3-8,0.7-16.1,1.7-24.1
	c1.1-8.4,3.9-16.6,8.2-23.9c4.4-7.8,10.2-14.5,18.8-17.9C30.9,0,33.6,0,36,0c2,0,2.9,2.1,2.2,4.3c-1.7,5.7-3.8,11.4-5.1,17.2
	c-3.3,13.5-3.8,27.6-1.4,41.4c1.7,9.8,4.7,19.4,9.1,28.4c6,12.3,13.6,23.6,23.8,33c2.5,2.3,5.2,4.4,7.8,6.6c1.2,1.2,3.1,1.2,4.3,0.1
	c8.2-5.9,17.5-9.1,27.1-11.6c11.6-3,23.5-4.3,35.4-2.9c6.4,0.8,12.8,2.2,18.9,4.1c13.2,4,25.2,10.7,37,17.7
	c12.1,7.2,24.1,14.7,35.9,22.4c10,6.5,19.8,13.5,29.7,20.1c7.6,5.1,15.3,10,23,14.9c8.4,5.3,17.5,8.2,27.2,9.8
	c10.6,1.8,21.4,2.3,32.1,1.3c10.4-1,20.6-3.3,30.3-7c0.8-0.3,2-1.7,1.9-2.2c-0.8-2.6,0.9-4.3,2-5.9c2.1-3,4.4-5.8,7-8.4
	c2.2-2.2,4.5-2,6.9-0.1c1.6,1.2,2.5,1.3,3.7-0.7c7.3-12.1,14.6-24.1,22-36.2c1.3-2.2,2-4.1,0.6-6.7c-1.4-2.4-1-5.5,1.1-7.4
	c3.6-3.1,7.2-6.6,11.5-8.7c6.1-2.9,12.5-5.3,19-7.3c4.9-1.6,9.7,0.2,14.5,1.2c3.7,0.8,7.4,1.6,11.2,2.2c8.1,1.2,16,3.2,23.6,6
	c6.9,2.5,13.1,6.6,18.2,11.8c2.6,2.3,5.8,3.9,9.2,4.6c11.9,2.7,24,1.8,36.1,1.1c2.1-0.1,4.2-1.2,6.3-1.5c3-0.6,6.1-0.8,9.2-0.8
	c5.7,0.3,8.5,3.1,7.4,8.6c-1.7,8.4-1.7,17.2-5.4,25.3c-2.6,5.8-6.7,10.4-12.5,12.6c-6.3,2.4-13,3.8-19.5,5.7
	c-0.9,0.2-1.8,0.6-2.7,0.8L544.7,194.7z"/>
<path class="st1" d="M44.9,214.2L44.9,214.2l1.1-14.1l3-18.8l4.6-29.8h11.5l24,62.8H76l-4.3-11.7H48.1L44.9,214.2z M59.7,168.8
	L51.3,193h17.1L59.7,168.8z"/>
<path class="st1" d="M140.2,214.2h-10.1v-6.4c-1.9,3.3-6.1,7.7-15.1,7.7c-13.6,0-22.4-10.6-22.4-23.5c0-14.3,10.2-23.4,22.2-23.4
	c8.4,0,13.2,4.5,14.8,7.1v-6.4v-22.9h10.5V214.2z M103.2,192.1c0,7.5,5.4,13.6,13.5,13.6c3.9,0,7.3-1.5,9.8-4c2.5-2.5,3.9-6,3.8-9.8
	c0-3.9-1.5-7.2-3.9-9.5c-2.4-2.4-5.8-3.9-9.6-3.9C108.2,178.5,103.2,185.1,103.2,192.1L103.2,192.1z"/>
<path class="st1" d="M195.9,214.2h-10.1v-6.4c-1.9,3.3-6.1,7.7-15.1,7.7c-13.6,0-22.4-10.6-22.4-23.5c0-14.3,10.2-23.4,22.2-23.4
	c8.4,0,13.2,4.5,14.8,7.1v-6.4v-36.5l5.9,3.2l4.7,2.9V214.2z M158.9,192.1c0,7.5,5.4,13.6,13.5,13.6c3.9,0,7.3-1.5,9.8-4
	c2.5-2.5,3.9-6,3.8-9.8c0-3.9-1.5-7.2-3.9-9.5c-2.4-2.4-5.8-3.9-9.6-3.9C163.9,178.5,158.9,185.1,158.9,192.1L158.9,192.1z"/>
<path class="st1" d="M188.1,305.9h-15.6l29-71.5h12.7l28.3,71.5h-15.7l-5.2-14h-28.2L188.1,305.9z M207.2,251.5l-10.1,29h20.6
	L207.2,251.5z"/>
<path class="st1" d="M324.2,284l-0.3-49.5h13.8v71.5H325L292,256.5l0.3,49.4h-13.8v-71.5h12.8L324.2,284z"/>
<path class="st1" d="M360.2,283.6c0.6,8.5,8.1,13.2,15.4,13.1c6.2,0,10.3-2.8,12.7-7.1h13c-2.5,5.9-6.3,10.3-10.7,13.3
	c-4.4,3.1-9.7,4.6-15.2,4.6c-16.3,0-28-13.2-28-28c0-15.1,11.8-28.3,27.8-28.3c7.9,0,14.9,3,19.8,8.1c6.5,6.7,8.9,15,7.8,24.2H360.2
	z M390.4,274c-0.5-5-5.8-12.1-15.1-12c-9.4,0-14.5,6.8-15,12H390.4z"/>
<path class="st1" d="M405.4,252.9h13.1l10.5,36.9l10.1-35.2h10.7l10.3,35.2l10.3-36.9h6.8h6.4l-17,53h-11.9l-10.4-35.8l-10.1,35.8
	h-11.9L405.4,252.9z"/>
<path class="st1" d="M278.5,324.3h21.2c8.3,0,20.4,0.8,28.3,11.6c4.9,6.1,6.9,13.5,6.9,21.8c0,18.9-9.9,33.5-34.2,33.5h-22.2V324.3z
	 M292,379.3h9.5c14.4,0,20-9.5,20-21.5c0-5.2-1.4-10.8-4.5-15c-2.8-3.6-7.3-6.7-15.4-6.7H292V379.3z"/>
<path class="st1" d="M341.5,366.2c0-12.6,9.3-26.1,26.5-26.1c17.2,0,26.5,13.5,26.5,26.2c0,12.8-9.3,26.3-26.5,26.3
	C350.8,392.6,341.5,379.1,341.5,366.2L341.5,366.2z M353.4,366.4c0,8.7,6.6,15.1,14.7,15.1c8.1,0,14.6-6.4,14.6-15.2
	c0-8.8-6.5-15.2-14.6-15.2C359.9,351.1,353.4,357.6,353.4,366.4L353.4,366.4z"/>
<path class="st1" d="M454.4,385.3c0,8.1-1.5,13.4-4.6,17.5c-4.2,5.7-12.5,10.2-22.7,10.2c-15.4,0-22.8-9.2-24.6-16.9h13.7
	c1.1,2.3,3,4,5.1,5.1c2.4,1.4,5.1,1.7,6.5,1.7c7,0,14.7-4.9,14.7-14.9v-4.2c-2.4,4.4-7.7,8.8-16.1,8.8c-14.3,0-25.3-10.8-25.3-26.1
	c0-16.2,11.6-26.5,25.3-26.5c7.1,0,13.3,3.2,16.1,8.1v-6.7h11.9V385.3z M412.9,366.3c0,8.7,6.2,15.3,14.8,15.3
	c4.4,0,7.9-1.5,10.6-4.2c2.6-2.6,4.2-6.3,4.2-10.6c0-3.8-1.2-7.8-3.6-10.7c-2.3-3-6-5-11.2-5C419.7,351.1,412.9,357.4,412.9,366.3
	L412.9,366.3z"/>
<path class="st1" d="M499.8,231.7c-3.8,1.9-27.3,14.3-29.2,21.2c-1.9,7,8.3,10.7,9.7,10.5S499.8,231.7,499.8,231.7z"/>
</svg>
