<svg id="Layer_1" data-name="Layer 1" xmlns="http://www.w3.org/2000/svg" viewBox="0 0 146.8 172.33"><defs><style>.cls-1{fill:#2e5e69;}</style></defs><title>Artboard 1</title><path class="cls-1" d="M141,155h-3.63V137.75a4,4,0,0,1-2,.57c-7.64,0-13.73-2.29-18.11-6.79a21,21,0,0,1-2.36-2.9,19.76,19.76,0,0,1-1.86,2.42c-4.35,4.82-10.81,7.26-19.16,7.26-7.65,0-13.74-2.29-18.12-6.79a22.3,22.3,0,0,1-2.36-2.89A19.45,19.45,0,0,1,71.52,131c-4.36,4.82-10.81,7.26-19.16,7.26-7.65,0-13.74-2.28-18.12-6.79a20.81,20.81,0,0,1-2.35-2.89A19.68,19.68,0,0,1,30,131c-4.36,4.83-10.82,7.27-19.17,7.27A4,4,0,0,1,9.38,138v17H5.78A5.78,5.78,0,0,0,0,160.76v5.79a5.78,5.78,0,0,0,5.78,5.78H141a5.79,5.79,0,0,0,5.79-5.78v-5.79A5.79,5.79,0,0,0,141,155Z"/><path class="cls-1" d="M24.09,125.67c3.09-3.4,3.51-8,3.54-10a13.29,13.29,0,0,1,0-1.52,4,4,0,0,1,8-.28c0,.08.06.63.06,1.5.16,2.1.91,7.07,4.4,10.62,2.81,2.87,7,4.31,12.32,4.31,6,0,10.45-1.55,13.22-4.62,3.09-3.41,3.51-8,3.53-10-.05-.88,0-1.44,0-1.52a4,4,0,0,1,8-.28c0,.08,0,.63.06,1.5.16,2.1.91,7.07,4.4,10.62,2.81,2.86,6.95,4.3,12.32,4.3,6,0,10.44-1.54,13.21-4.61,3.09-3.41,3.52-8,3.54-10,0-.87,0-1.43,0-1.51a4,4,0,0,1,8-.29c0,.09.06.64.06,1.51.16,2.1.92,7.07,4.4,10.62,2.82,2.86,6.95,4.3,12.32,4.3a4,4,0,0,1,2,.57V112.34a5.78,5.78,0,0,0-5.78-5.78h-3.78V91.89a3.38,3.38,0,0,1-1.73.48c-6.51,0-11.69-1.94-15.41-5.78a16.69,16.69,0,0,1-2-2.45,17.74,17.74,0,0,1-1.59,2.06c-3.71,4.1-9.19,6.18-16.31,6.18-6.5,0-11.68-1.95-15.4-5.78a17.32,17.32,0,0,1-2-2.45,18.52,18.52,0,0,1-1.58,2.06c-3.71,4.09-9.2,6.17-16.3,6.17-6.5,0-11.69-1.94-15.41-5.77a19.52,19.52,0,0,1-2-2.45,16.52,16.52,0,0,1-1.58,2c-3.71,4.1-9.2,6.18-16.31,6.18A3.43,3.43,0,0,1,19,92.15v14.43H15.18a5.78,5.78,0,0,0-5.79,5.78v18.26a4.06,4.06,0,0,1,1.48-.29C16.87,130.29,21.32,128.74,24.09,125.67Z"/><path class="cls-1" d="M31.46,81.6a13.25,13.25,0,0,0,3-8.52c0-.74,0-1.2,0-1.28a3.41,3.41,0,0,1,6.8-.24,11.22,11.22,0,0,1,.06,1.28,14.79,14.79,0,0,0,3.74,9c2.39,2.44,5.92,3.67,10.48,3.67,5.1,0,8.88-1.33,11.25-3.94a13.23,13.23,0,0,0,3-8.52c-.05-.74,0-1.2,0-1.28a3.41,3.41,0,0,1,6.8-.24c0,.07,0,.54,0,1.28.14,1.79.78,6,3.74,9,2.39,2.44,5.92,3.67,10.48,3.67,5.1,0,8.88-1.33,11.25-3.94a13.25,13.25,0,0,0,3-8.52c0-.74,0-1.2,0-1.28a3.41,3.41,0,0,1,6.81-.24c0,.07,0,.54.06,1.28.14,1.79.77,6,3.73,9,2.39,2.44,5.91,3.67,10.49,3.67a3.37,3.37,0,0,1,1.72.48V70.25a4.92,4.92,0,0,0-4.92-4.92H85.34V33.73s3.41-3.77,0-3.53-5.39,2.56-11,3.95c-.57.14-1.11.23-1.65.33a6,6,0,0,1,1.9-3.39,7.17,7.17,0,0,0,2.67-5.54,7.71,7.71,0,0,0-2.73-5.19A1.05,1.05,0,0,0,73.22,22a5.71,5.71,0,0,1,2,3.63,5.35,5.35,0,0,1-2,3.91,8.05,8.05,0,0,0-2.59,5.27,38.32,38.32,0,0,1-9.1-.39c-3-.44,0,4,0,4V65.32H23.88A4.92,4.92,0,0,0,19,70.24V85.77a3.2,3.2,0,0,1,1.25-.24C25.32,85.54,29.1,84.21,31.46,81.6Z"/><path class="cls-1" d="M71.52,0C54.66,19.61,66,28.8,69.18,30.83a10.19,10.19,0,0,1,2-2.61,3.55,3.55,0,0,0,1.33-2.29,3.54,3.54,0,0,0-1.19-2.09A3.17,3.17,0,0,1,73,18.25a3.11,3.11,0,0,1,2.33.67,9.87,9.87,0,0,1,3.52,6.76,8.23,8.23,0,0,1-1.36,4.71c.91.21,2.2-.52,4.57-3.7C88.72,11.25,71.52,0,71.52,0Z"/></svg>