<svg id="Layer_1" data-name="Layer 1" xmlns="http://www.w3.org/2000/svg" viewBox="0 0 148.05 101.73"><defs><style>.cls-1{fill:#2e5e69;}</style></defs><title>Artboard 1</title><path class="cls-1" d="M83,97.4c-2.56,3.55-6,4.53-9.8,4.29-3.14-.19-6-1.13-7.86-4.28L47.42,95.14c-5.09-.65-10.17-1.34-15.26-2Q23.55,92.08,14.94,91,8.48,90.22,2,89.38a2.5,2.5,0,0,1-2-2.71c.22-4,.46-8.07.67-12.11.34-6.5.63-13,1-19.5.29-5.54.65-11.08,1-16.62S3.18,27.49,3.48,22c.12-2.22.24-4.44.39-6.67a1.64,1.64,0,0,1,2.3-1.67c2.71.67,5.41,1.38,8.28,2.11.12-1.68.24-3.27.33-4.85.14-2.53.24-5.07.39-7.6A3.19,3.19,0,0,1,18.28.14,65.94,65.94,0,0,1,33.52,1,91.73,91.73,0,0,1,48.91,4.91a63.89,63.89,0,0,1,19.38,11c2,1.57,3.85,3.26,5.71,4.84,2.57-2.11,5.08-4.28,7.7-6.29A62.82,62.82,0,0,1,102.31,3.89,85.41,85.41,0,0,1,118.55.51c3.84-.35,7.73-.29,11.59-.33a2.86,2.86,0,0,1,2.69,2.54c.23,1.87.29,3.76.41,5.64.13,2.19.23,4.38.35,6.57,0,.26.08.53.13.86l7.39-1.91.7-.17c1.57-.34,2.36.22,2.5,1.81.1,1.12.13,2.25.19,3.38q.44,8.67.89,17.35c.37,7,.78,14,1.15,20.94q.47,8.52.89,17c.21,4.07.44,8.14.61,12.21.09,2-.61,2.74-2.55,3q-14,1.8-28,3.6c-6.44.82-12.88,1.67-19.32,2.49C93.06,96.17,87.93,96.79,83,97.4ZM126.47,6.69c-.41,0-.75,0-1.07,0-3.48.34-7,.54-10.41,1.06a71,71,0,0,0-16.75,4.66A62.91,62.91,0,0,0,78,26.4a2.63,2.63,0,0,0-.66,1.7c0,8.09,0,16.18,0,24.27,0,11.79,0,23.59,0,35.38,0,.36,0,.72,0,1.22.35-.23.59-.36.79-.52,1.26-1,2.49-2,3.78-3a61.49,61.49,0,0,1,17.18-9.24,92.93,92.93,0,0,1,25.64-4.71l5.19-.24C128.8,49.74,127.64,28.27,126.47,6.69ZM70.5,89l.25-.19v-1q0-29.86,0-59.73a2.41,2.41,0,0,0-.92-2C66.9,23.63,64.06,21,61,18.74a52.27,52.27,0,0,0-15.83-8A87.18,87.18,0,0,0,27.56,7c-1.93-.2-3.88-.24-5.93-.36-1.17,21.65-2.33,43.13-3.5,64.68C37.54,71.69,55.64,75.57,70.5,89Zm-16-3.17-.73-.4a63.34,63.34,0,0,0-17.57-5.76A93.75,93.75,0,0,0,15,78.07c-2.44.08-3.79-1.31-3.69-3.74.12-2.91.28-5.81.44-8.72q.67-12.27,1.37-24.53.51-9.07,1-18.16c.1-1.87.17-3.73.26-5.72-1.28.27-2.41.57-3.56.73-.74.1-1,.44-1,1.13-.11,2.46-.26,4.92-.4,7.38Q8.7,39,8,51.48c-.3,5.26-.57,10.53-.86,15.8-.25,4.31-.52,8.62-.77,12.93-.1,1.9-.19,3.81-.29,5.81l1.24-.21c2.32-.43,4.62-1,7-1.28,4.95-.62,9.91-1.27,14.89-1.58a61.48,61.48,0,0,1,16.58.93C48.57,84.48,51.38,85.17,54.45,85.87ZM142,85.55a4.29,4.29,0,0,0,0-.56q-.47-8.58-.94-17.14-.8-13.75-1.59-27.49-.63-11-1.26-22c0-.26-.17-.71-.34-.75-1.35-.29-2.72-.5-4.17-.76.15,2.86.28,5.53.43,8.18.31,5.75.64,11.5,1,17.24s.6,11.5.9,17.25c.27,5,.57,10,.82,15a3.25,3.25,0,0,1-3.49,3.54h-4.42a86.22,86.22,0,0,0-27.14,4.3c-1.86.61-3.68,1.37-5.51,2.06l.07.35C111.59,80.51,126.76,82.61,142,85.55Z"/><path class="cls-1" d="M120.68,18c0,1-.94,1.71-2.22,1.86-2.72.31-5.47.47-8.13,1C100.77,22.94,92,26.64,85,33.71a1.82,1.82,0,1,1-2.56-2.56,42.36,42.36,0,0,1,11.28-8.3,62.49,62.49,0,0,1,20.88-6.38c1.35-.16,2.72-.25,4.09-.32A1.84,1.84,0,0,1,120.68,18Z"/><path class="cls-1" d="M118.4,43c.61,0,1.23,0,1.85,0a1.83,1.83,0,0,1-.09,3.65c-9.64-.09-18.58,2.58-27,7-2.59,1.36-4.88,3.27-7.33,4.88a3,3,0,0,1-1.73.67,2.31,2.31,0,0,1-1.5-1.15,1.67,1.67,0,0,1,.69-2.16c2.74-1.87,5.36-4,8.25-5.53a62.21,62.21,0,0,1,22.35-7.13c1.5-.18,3-.21,4.51-.31Z"/><path class="cls-1" d="M121.28,31.18A1.85,1.85,0,0,1,119.37,33a53.28,53.28,0,0,0-12.73,2c-7.84,2.35-15.17,5.69-21.29,11.29a1.93,1.93,0,0,1-2.69.14,2,2,0,0,1,.22-2.85A46.88,46.88,0,0,1,94,36.08,66.85,66.85,0,0,1,107.85,31a55,55,0,0,1,11.36-1.58A1.84,1.84,0,0,1,121.28,31.18Z"/><path class="cls-1" d="M118.48,57.29c.72,0,1.44-.11,2.16-.11a1.84,1.84,0,1,1,0,3.65A60.48,60.48,0,0,0,101,64.3a49.3,49.3,0,0,0-14.69,8,2,2,0,0,1-2.25.53,1.75,1.75,0,0,1-.35-3.1,76.34,76.34,0,0,1,7.55-5.11A56.13,56.13,0,0,1,108,58.54c3.45-.66,7-1,10.45-1.47Z"/><path class="cls-1" d="M30,15.56c10.84,1,20.94,4.16,29.84,10.61A62.06,62.06,0,0,1,65.35,31a1.83,1.83,0,1,1-2.63,2.52c-5-5.22-11.12-8.63-17.86-11.09a66,66,0,0,0-15.57-3.35c-1.56-.17-2.09-.81-2-2.06.11-1.1,1-1.63,2.43-1.52Z"/><path class="cls-1" d="M29.41,28.73A53.94,53.94,0,0,1,44.53,31.8a59.2,59.2,0,0,1,16.18,8.31c1.5,1.13,2.91,2.39,4.3,3.65a1.82,1.82,0,1,1-2.49,2.65C57.28,41.4,51,38.09,44.3,35.6a53,53,0,0,0-14.77-3.22,5,5,0,0,1-1.79-.33,1.52,1.52,0,0,1-1-1.84c.27-.88.74-1.55,1.81-1.48C28.86,28.75,29.14,28.73,29.41,28.73Z"/><path class="cls-1" d="M29.1,56.51a62.27,62.27,0,0,1,23.92,6A49,49,0,0,1,64.2,69.65a1.89,1.89,0,0,1,.49,2.71,1.82,1.82,0,0,1-2.8.1C56,67.37,49,64.27,41.58,62.12a58.7,58.7,0,0,0-11.93-1.94c-.79-.06-1.57-.08-2.36-.16a1.76,1.76,0,0,1-1.67-1.93,1.82,1.82,0,0,1,1.95-1.7C28.08,56.4,28.59,56.47,29.1,56.51Z"/><path class="cls-1" d="M28.35,41.8a55.49,55.49,0,0,1,19.5,4.37A55.39,55.39,0,0,1,61.49,53.8c1,.8,2,1.66,3,2.53s1.12,1.94.35,2.78a1.75,1.75,0,0,1-2.72,0,45.67,45.67,0,0,0-9.37-6.6,61.1,61.1,0,0,0-19.6-6.63c-1.66-.24-3.35-.26-5-.41a1.75,1.75,0,0,1-1.78-1.94A1.8,1.8,0,0,1,28.35,41.8Z"/></svg>