<?xml version="1.0" encoding="utf-8"?>
<!-- Generator: Adobe Illustrator 24.0.3, SVG Export Plug-In . SVG Version: 6.00 Build 0)  -->
<svg version="1.1" id="Layer_1" xmlns="http://www.w3.org/2000/svg" xmlns:xlink="http://www.w3.org/1999/xlink" x="0px" y="0px"
	 viewBox="0 0 131.9 260.9" style="enable-background:new 0 0 131.9 260.9;" xml:space="preserve">
<style type="text/css">
	.st0{fill:#2E5E69;}
</style>
<title>Artboard 1</title>
<path class="st0" d="M65.6,249.1c11.6,0,23.2,0,34.7,0c1.8,0,3.6,0.2,4.4,2c1,2,0.9,4.3-0.1,6.2c-0.5,0.9-1.8,1.3-2.8,1.8
	c-0.5,0.2-1.2,0.1-1.8,0.1c-23.1,0-46.1,0-69.2,0c-1.8,0-3.6-0.2-4.4-2c-0.9-2-0.9-4.3,0.1-6.2c0.7-1.4,2.1-1.9,3.7-1.9
	c4.7,0,9.4,0,14.1,0L65.6,249.1z"/>
<path class="st0" d="M65.6,10.6h-35c-3.3,0-4.6-1.4-4.7-4.7c0-0.5,0-1,0-1.5c0-2.1,1.7-3.9,3.8-3.9c0.8-0.1,1.6,0,2.5,0h68.1
	c4.5,0,6.8,4.2,4.5,8.2c-0.8,1.5-2.2,2-3.8,2c-7.8,0-15.6,0-23.4,0L65.6,10.6z"/>
<path class="st0" d="M65.6,238.4H48.1c-3.4,0-4.8-1.4-4.8-4.8c0-0.3,0-0.5,0-0.8c0-3,1.5-4.5,4.4-4.5c11.2,0,22.4,0,33.6,0
	c0.9,0,1.7,0,2.6,0c2.4,0.1,3.8,1.4,4,3.8c0,0.5,0,1,0,1.5c0,3.4-1.4,4.8-4.8,4.8L65.6,238.4L65.6,238.4z"/>
<path class="st0" d="M65.6,21.4c5.9,0,11.9,0,17.8,0c3.2,0,4.6,1.4,4.6,4.6c0,0.3,0,0.6,0,1c0,3.1-1.5,4.5-4.6,4.6
	c-4.2,0-8.5,0-12.7,0H48c-3.4,0-4.8-1.4-4.8-4.8c0-0.4,0-0.8,0-1.2c0.1-2.4,1.6-4,4.1-4C53.4,21.4,59.5,21.4,65.6,21.4L65.6,21.4z"
	/>
<path class="st0" d="M86.9,60.2c1.7-1.2,3.6-2.2,5.2-3.5c4.3-3.3,8.7-6.6,12.9-10.1c3.2-2.7,6.3-5.6,9.2-8.7
	c5.2-5.6,9.6-12,12.9-18.9c1.9-4.1,3.3-8.4,4.2-12.8c0.3-1.5,0.4-3,0.6-4.5c0.1-0.7-0.1-1.3-1-1.3c-1.6-0.1-3.2-0.3-4.7-0.3
	c-3.9,0.1-7.9,0.2-11.9,0.3c-2.3,0.1-2.6,0.2-2.9,2.6c-0.5,4.2-2.5,7.9-4.5,11.5c-4,7.1-9.5,12.9-15.5,18.2
	c-7.2,6.3-15,11.7-23.1,16.7c-0.6,0.4-1.7,0.6-2.3,0.3c-2.8-1.6-5.6-3.3-8.3-5c-3.3-2.1-6.5-4.3-9.7-6.7c-3.3-2.5-6.6-5-9.7-7.7
	c-2.4-2.1-4.4-4.5-6.6-6.7c-3.6-3.6-6.3-7.9-8.6-12.4c-1.5-2.8-2.4-5.8-2.7-9c-0.1-0.9-0.2-1.8-1.6-1.8C15.9,0.3,13,0.2,9.4,0
	C7,0.2,4.1,0.4,1.1,0.5C0.3,0.6,0,0.9,0,1.7c0,1.5,0.2,3,0.4,4.5c1.4,5.7,3.2,11.2,6.1,16.2c1.8,3.1,3.5,6.2,5.5,9.1
	c3.9,5.4,8.3,10.3,13.1,14.8c3,2.7,6.1,5.4,9.3,7.9c3.2,2.5,6.4,4.7,9.6,7.1c1.1,0.8,1.1,1.2,0,2c-2.9,2-5.8,3.9-8.6,6
	c-3.7,2.8-7.3,5.8-10.7,8.9c-3.4,3.3-6.4,6.9-9.5,10.5c-4.7,5.5-8.4,11.8-10.9,18.6c-1.4,3.9-2.5,7.9-3.3,11.9
	c-1.7,8.9-1,18.1,2,26.6c2.1,5.7,4.6,11.1,8.2,16c2.6,3.6,5.5,7,8.4,10.4c4.2,4.8,8.8,9.1,13.9,12.9c3.8,2.9,7.8,5.7,11.7,8.5
	c1.2,0.9,1.2,1.2-0.1,2.1c-1.1,0.8-2.4,1.3-3.5,2.2c-4.4,3.5-8.8,7-13,10.6c-4.7,4.1-8.9,8.6-12.6,13.6c-3.7,4.8-7.2,9.9-9.6,15.5
	c-1.9,4.3-3.5,8.7-4.8,13.2c-0.8,2.6-0.9,5.5-1.2,8.2c-0.1,0.9,0.1,1.6,1.2,1.6c1.5,0.1,3.1,0.1,4.6,0.1c4.1-0.1,8.3-0.2,12.4-0.3
	c1.2,0,1.7-0.4,1.9-1.6c0.9-5.3,2.7-10.4,5.3-15.1c2.2-4.2,4.9-8,8.1-11.4c3.2-3.3,6.3-6.9,9.8-9.8c6.8-5.8,14.3-10.7,22-15.1
	c0.6-0.3,1.4-0.3,2-0.1c6.4,3.5,12.6,7.5,18.2,12.3c6.3,5.4,12.1,11.3,16.8,18.2c4.3,6.5,7.7,13.3,8.6,21.2c0.1,0.9,0.5,1.5,1.4,1.5
	c1.6,0.1,3.3,0.3,4.9,0.3c4.3,0,8.5,0,12.8-0.1c0.7,0,1.4-0.1,1.2-1.1c-0.5-3.4-0.7-6.9-1.6-10.2c-1.5-5.8-3.8-11.4-6.9-16.6
	c-3.5-5.9-7.4-11.6-12.3-16.5c-3.8-3.9-7.9-7.5-12.1-11c-3.9-3.2-8-6.1-12.1-9.1c-0.9-0.7-0.9-1.1,0-1.7c2.5-1.8,5-3.5,7.4-5.4
	c5.6-4.5,11.2-9,16.1-14.3c3.7-4,7.3-8,10.3-12.5c3.3-4.8,6-9.9,8-15.3c1.5-4.2,2.5-8.7,2.9-13.2c0.4-4.3,0.2-8.6-0.4-12.9
	c-1.6-11.1-6-21.6-12.9-30.5c-3.7-4.9-7.7-9.6-12.5-13.5c-2.8-2.4-5.6-4.8-8.5-7c-3.3-2.5-6.9-4.8-10.3-7.1
	C85.5,61.6,85.4,61.2,86.9,60.2z M105.9,215.8c8.8,8.9,16.1,18.8,19.9,30.9c1.3,4,1.7,8.3,2.6,12.4c0.2,1.2-0.3,1.6-1.5,1.6
	c-3.5-0.1-7,0-10.5,0c-0.8,0-1.4-0.1-1.5-1.1c-1.9-13.6-9-24.4-18.1-34.2c-8.8-9.3-19.2-16.3-30.2-22.6c-10.3-6-20.6-12-30.1-19.4
	c-9.8-7.7-18.5-16.4-25-27.1c-5.7-9.4-8.6-19.6-7.9-30.6c0.6-10,3.9-19,9.1-27.5C19.3,87,28.5,78.2,38.9,70.6
	c2.8-2.1,5.8-3.9,8.8-5.8c0.5-0.3,1-0.4,1.6-0.2c3.9,2.2,7.8,4.5,11.7,6.7c0.1,0.1,0.2,0.3,0.5,0.5c-3.2,2-6.4,3.8-9.4,5.8
	c-10.2,6.8-19.4,14.7-26.4,24.9c-5.4,7.9-8.8,16.6-8.7,26.3c0,8.3,2.8,15.7,7.4,22.5c6.6,9.7,14.9,18.1,24.6,24.6
	c8.6,5.9,17.6,11.4,26.5,16.9C86.3,199.6,96.9,206.6,105.9,215.8L105.9,215.8z M92.9,92.2c4,3.4,7.5,7.3,10.4,11.6
	c3.8,5.5,6.7,11.4,7.9,18c0.4,2.2,0.5,4.4,0.7,5.9c-0.1,8.5-2.7,15.4-7,21.8c-3.9,5.6-8.4,10.8-13.5,15.3
	c-4.9,4.4-9.8,8.7-15.4,12.2c-2.6,1.6-5,3.4-7.5,5.2c-1.7,1.2-2.5,1.3-4.2,0.1c-6.1-4.2-12.4-8.2-18.3-12.7
	c-3.4-2.5-6.3-5.6-9.3-8.6c-2.1-2-4-4.2-5.9-6.4c-4.1-4.9-7.2-10.4-9.2-16.4c-0.5-1.5-0.8-3.1-0.9-4.7c-0.1-3.5-0.1-7,0.1-10.5
	c0.3-3.9,1.7-7.5,3.3-11c2.6-5.7,6.1-10.9,10.4-15.4c4.8-5.1,9.9-9.9,15.9-13.7c4.1-2.7,8.3-5.2,12.4-7.9c1.7-1.1,3.2-1.2,4.9-0.1
	c4.8,3,9.8,5.6,14.4,8.8C85.9,86.2,89.3,89.3,92.9,92.2L92.9,92.2z M83.3,58.8c-0.7,0.5-1.3,0.7-2.1,0.2c-3.4-2.1-6.9-4.2-10.4-6.3
	c-0.2-0.2-0.4-0.3-0.7-0.5c0.5-0.4,1-0.7,1.5-1.1c9.8-6.2,19.3-13,27.5-21.3c5.7-5.8,10.8-12.2,13.8-19.9c0.9-2.5,1.6-5.1,2-7.8
	c0.2-1.1,0.5-1.6,1.7-1.5c3.6,0.1,7.1,0.1,10.7,0c1.2,0,1.5,0.4,1.4,1.6c-1,9.5-4.9,17.9-10.3,25.6c-5.6,8-12.5,14.6-20.2,20.4
	C93.3,51.9,88.2,55.3,83.3,58.8z"/>
<path class="st0" d="M65.7,113.7h34.7c3.5,0,4.9,1.3,4.9,4.9c0,0.5,0,0.9,0,1.4c0,2.1-1.6,3.7-3.7,3.8c-0.9,0.1-1.8,0-2.7,0H31.1
	c-4.5,0-6.9-4.1-4.7-8.1c0.8-1.5,2.2-2,3.9-2c8.4,0,16.9,0,25.3,0L65.7,113.7z"/>
<path class="st0" d="M65.5,144.4c-11.6,0-23.2,0-34.7,0c-1.9,0-3.7-0.3-4.4-2.2c-0.8-2.1-1.1-4.5,0.5-6.4c0.7-0.8,2.1-1.2,3.2-1.5
	c1.1-0.2,2.4,0,3.5,0h66.9c3.5,0,4.9,1.3,4.9,4.9v0.5c0,3.3-1.4,4.7-4.6,4.7L65.5,144.4z M29.7,134.8v0.1h72.2v-0.1H29.7z"/>
<path class="st0" d="M65.5,102.9c-5.9,0-11.9,0-17.8,0c-3,0-4.5-1.5-4.5-4.4c0-0.6,0-1.3,0-1.9c0.1-2,1.7-3.6,3.7-3.7
	c0.4,0,0.7,0,1.1,0h35.2c3.5,0,4.9,1.4,4.9,4.9c0,0.4,0,0.7,0,1.1c-0.2,2.7-1.6,4.1-4.3,4.1C77.6,102.9,71.6,102.9,65.5,102.9z"/>
<path class="st0" d="M65.5,165.3H48.1c-3.5,0-4.8-1.4-4.9-4.9v-0.8c0-2.9,1.5-4.3,4.4-4.4c2.4,0,4.7,0,7.1,0c9.5,0,19,0,28.4,0
	c1.9,0,3.7,0.3,4.4,2.3c0.7,2.1,0.9,4.4-0.5,6.4c-0.8,1.2-2.2,1.4-3.5,1.4C77.5,165.3,71.5,165.3,65.5,165.3z"/>
<path class="st0" d="M29.7,134.8h72.2v0.1H29.7L29.7,134.8z"/>
</svg>
