<svg id="Layer_1" data-name="Layer 1" xmlns="http://www.w3.org/2000/svg" viewBox="0 0 383.68 383.68"><defs><style>.cls-1{fill:#2e5e69;}.cls-2{fill:#f4c271;}</style></defs><title>Artboard 1</title><circle class="cls-1" cx="192" cy="192" r="191.84"/><path class="cls-2" d="M119.76,148.24c0,12.34,3.52,123.35,3.52,127.46s2.94,13.51,10.57,13.51H246.62c5.88,0,12.92-3.53,12.92-10.58s3.53-121.58,3.53-130.39Zm33.12,122.62c-4.18.15-8.73-3.72-8.82-6.41s-2.82-78.91-2.93-81.93,2.87-6.16,8.59-6.36,8.5,3.73,8.58,5.74,2.81,78.92,2.92,81.94C161.36,267.87,157.06,270.71,152.88,270.86Zm47.71-6c0,2-2.64,6-8.36,6s-8.81-3-8.81-6v-82c0-2.69,4.4-6.72,8.59-6.72s8.58,2.69,8.58,6.72Zm39.35-.4c-.1,2.69-4.64,6.56-8.82,6.41s-8.49-3-8.34-7c.1-3,2.85-79.92,2.92-81.94s2.85-6,8.57-5.74,8.7,3.33,8.59,6.36S240,261.77,239.94,264.45Z"/><path class="cls-2" d="M215,94.84v0H167.86a4.6,4.6,0,0,0-1.89.36c-2.31.76-2.71,2.66-2.71,4.93V117.7h56.28V100.08C219.54,97.31,218.93,95.08,215,94.84Z"/><path class="cls-2" d="M263.07,113.59H119.76c-3.53,0-10.58,3.52-10.58,11.16s5.29,11.75,10.58,11.75H263.07c4.7,0,11.75-5.88,11.75-11.46A11.71,11.71,0,0,0,263.07,113.59Z"/></svg>