<svg id="Layer_1" data-name="Layer 1" xmlns="http://www.w3.org/2000/svg" viewBox="0 0 396 160.64"><defs><style>.cls-1{fill:#2e5e69;}.cls-2{fill:#54b7c4;}</style></defs><title>Artboard 1</title><path class="cls-1" d="M255.1,106.85a38.24,38.24,0,0,0,5-3.87,23.77,23.77,0,0,0,5.5-9,31.68,31.68,0,0,0,1.72-9.62,15.87,15.87,0,0,0-.25-2.74,17,17,0,0,0-.52-3.22,44.24,44.24,0,0,0-2.33-5.91c-1.78-3.55-4-6.84-7.35-9.12a17.86,17.86,0,0,0-7.71-3,26.34,26.34,0,0,0-6.34-.1,18.94,18.94,0,0,0-8.26,2.7c-4,2.55-6.73,6.26-8.89,10.4-.54,1-1.06,2.05-2.29,2.27s-2.63.74-3.64-.48a14.15,14.15,0,0,1-1.55-2.57,32.43,32.43,0,0,0-4.71-7.41,16.78,16.78,0,0,0-12-5.43,20.7,20.7,0,0,0-7.56.91,17,17,0,0,0-7.47,5.25,35.53,35.53,0,0,0-4.85,7.83,3.37,3.37,0,0,1-3.25,1.86,2.84,2.84,0,0,1-3-1.49c-.24-.49-.56-.94-.81-1.42a27.87,27.87,0,0,0-5.94-8.33,20.24,20.24,0,0,0-12-5.17,24,24,0,0,0-7.16.28,20.29,20.29,0,0,0-5.3,1.89,27.7,27.7,0,0,0-8.61,7.51A25.8,25.8,0,0,0,130,83a60.56,60.56,0,0,0,.29,6.71,18,18,0,0,0,1.89,6.75,23.38,23.38,0,0,0,9,10.43,4.16,4.16,0,0,1,2.29,2.67c.27,1.64-.81,2.58-1.92,3.51-2,1.69-4.09,3.3-5.93,5.16a23.24,23.24,0,0,0-5.45,8.72,20.62,20.62,0,0,0-1.37,6.35c0,1,0,2,0,2.95a22.88,22.88,0,0,0,1.5,9.82,21.67,21.67,0,0,0,5.84,8.65,20.92,20.92,0,0,0,10.42,5.36,18.16,18.16,0,0,0,6.62.39,47.15,47.15,0,0,0,5.61-1.22,22.34,22.34,0,0,0,8.05-4.55,28.57,28.57,0,0,0,6.41-8.53,3.44,3.44,0,0,1,3.15-2.07c.71,0,1.43,0,2.14,0,3.34-.11,6.68-.25,10-.33,4.25-.1,8.5-.19,12.74-.21,6,0,12,0,18,0a3.48,3.48,0,0,1,3.56,2.17,23.32,23.32,0,0,0,7.74,9.44,19.54,19.54,0,0,0,7.52,3.25,20.41,20.41,0,0,0,7.83.14,24.88,24.88,0,0,0,7.53-2.53,23.52,23.52,0,0,0,10.42-12.26,25.55,25.55,0,0,0,1.29-4.72,26.24,26.24,0,0,0,.61-5.7,27.77,27.77,0,0,0-1.43-7.94,26.73,26.73,0,0,0-4-7.77,26.42,26.42,0,0,0-5.72-5.25,3.73,3.73,0,0,1-1.35-3A4.67,4.67,0,0,1,255.1,106.85ZM210.68,78.18c0,5.59-3.65,9.67-9.64,9.64a10.08,10.08,0,0,1-9.66-9.69,9.83,9.83,0,0,1,10.21-9.53C206.09,68.63,210.67,73.47,210.68,78.18Z"/><path class="cls-1" d="M0,0V50H396V0ZM200.84,32.45a10.09,10.09,0,0,1-9.66-9.69,9.82,9.82,0,0,1,10.21-9.53c4.5,0,9.08,4.87,9.09,9.58C210.5,28.4,206.83,32.47,200.84,32.45Z"/><path class="cls-2" d="M207,74.58c0,3-1.86,6.85-5.89,6.85s-6.2-2.31-6.2-6.85V26.91a5.93,5.93,0,0,1,6-6.14c3,0,6.05.9,6.05,6.14Z"/></svg>