<?xml version="1.0" encoding="utf-8"?>
<!-- Generator: Adobe Illustrator 24.0.3, SVG Export Plug-In . SVG Version: 6.00 Build 0)  -->
<svg version="1.1" id="Layer_1" xmlns="http://www.w3.org/2000/svg" xmlns:xlink="http://www.w3.org/1999/xlink" x="0px" y="0px"
	 viewBox="0 0 396 160.6" style="enable-background:new 0 0 396 160.6;" xml:space="preserve">
<style type="text/css">
	.st0{fill:#2E5E69;}
	.st1{fill:#54B7C4;}
</style>
<title>Artboard 1</title>
<path class="st0" d="M0,0v50h396V0H0z M200.8,32.5c-5.3-0.2-9.5-4.4-9.7-9.7c0.2-5.4,4.7-9.7,10.1-9.5c0,0,0.1,0,0.1,0
	c4.5,0,9.1,4.9,9.1,9.6C210.5,28.4,206.8,32.5,200.8,32.5z"/>
<g>
	<path class="st0" d="M225.6,106.5c-4.3,0-6.2,4-6.2,7.8c0,4.4,2.5,7.7,6.1,7.7c3.5,0,6.1-3.3,6.1-7.8
		C231.6,110.8,229.9,106.5,225.6,106.5z"/>
	<path class="st0" d="M260.3,117.6c-1.6-2-3.6-3.8-5.7-5.2c-0.9-0.7-1.4-1.8-1.4-3c0.3-1,0.9-1.9,1.8-2.5c1.8-1.1,3.4-2.4,5-3.9
		c2.5-2.6,4.4-5.6,5.5-9c1.1-3.1,1.6-6.3,1.7-9.6c0-0.9-0.1-1.8-0.2-2.7c-0.1-1.1-0.2-2.2-0.5-3.2c-0.6-2-1.4-4-2.3-5.9
		c-1.8-3.5-4-6.8-7.4-9.1c-2.3-1.6-4.9-2.6-7.7-3c-2.1-0.3-4.2-0.3-6.3-0.1c-2.9,0.2-5.8,1.2-8.3,2.7c-4,2.5-6.7,6.3-8.9,10.4
		c-0.5,1-1.1,2-2.3,2.3c-1.2,0.2-2.6,0.7-3.6-0.5c-0.6-0.8-1.1-1.7-1.5-2.6c-1.2-2.7-2.8-5.2-4.7-7.4c-3.1-3.4-7.4-5.3-12-5.4
		c-2.6-0.2-5.1,0.1-7.6,0.9c-2.9,1-5.5,2.9-7.5,5.2c-1.9,2.4-3.6,5-4.9,7.8c-0.6,1.2-1.9,2-3.2,1.9c-1.2,0.2-2.4-0.4-3-1.5
		c-0.2-0.5-0.6-0.9-0.8-1.4c-1.4-3.1-3.5-5.9-5.9-8.3c-3.3-3-7.5-4.8-12-5.2c-2.4-0.3-4.8-0.2-7.2,0.3c-1.8,0.4-3.6,1-5.3,1.9
		c-3.4,1.9-6.3,4.4-8.6,7.5c-3.2,4-5.1,9-5.5,14.1c0,2.2,0.1,4.5,0.3,6.7c0.2,2.4,0.8,4.6,1.9,6.8c1.9,4.3,5,7.9,9,10.4
		c1.1,0.5,2,1.5,2.3,2.7c0.3,1.6-0.8,2.6-1.9,3.5c-2,1.7-4.1,3.3-5.9,5.2c-2.4,2.5-4.3,5.4-5.5,8.7c-0.8,2-1.3,4.2-1.4,6.3
		c0,1,0,2,0,3c-0.2,3.3,0.3,6.7,1.5,9.8c1.2,3.3,3.2,6.3,5.8,8.7c2.9,2.7,6.5,4.6,10.4,5.4c2.2,0.5,4.4,0.7,6.6,0.4
		c1.9-0.3,3.8-0.7,5.6-1.2c3-0.9,5.7-2.5,8-4.5c2.7-2.4,4.8-5.3,6.4-8.5c0.5-1.3,1.8-2.1,3.1-2.1c0.7,0,1.4,0,2.1,0
		c3.3-0.1,6.7-0.2,10-0.3c4.2-0.1,8.5-0.2,12.7-0.2c6,0,12,0,18,0c1.5-0.1,3,0.7,3.6,2.2c1.7,3.8,4.4,7,7.7,9.4
		c2.2,1.6,4.8,2.7,7.5,3.2c2.6,0.6,5.2,0.6,7.8,0.1c2.6-0.4,5.2-1.3,7.5-2.5c4.8-2.7,8.5-7.1,10.4-12.3c0.6-1.5,1-3.1,1.3-4.7
		c0.4-1.9,0.6-3.8,0.6-5.7c-0.1-2.7-0.6-5.4-1.4-7.9C263.4,122.6,262.1,120,260.3,117.6z M175.7,124.3h-3.6v-13.1h-13.5v13.1H155
		V96.4h3.6v11.7h13.5V96.4h3.6V124.3z M193.6,124.3l-0.2-3.3h-0.1c-1,1.6-3.1,3.7-6.6,3.7c-3.1,0-6.9-1.7-6.9-8.8v-11.7h3.6v11.1
		c0,3.8,1.2,6.4,4.5,6.4c2.4,0,4.1-1.7,4.8-3.3c0.2-0.5,0.3-1.2,0.3-1.9v-12.3h3.6v14.6c0,2.1,0,3.9,0.2,5.5H193.6z M204.3,124.3
		h-3.6V94.9h3.6V124.3z M201,87.8c-5.3-0.2-9.5-4.4-9.7-9.7c0.2-5.4,4.7-9.7,10.1-9.5c0,0,0.1,0,0.1,0c4.5,0,9.1,4.9,9.1,9.6
		C210.6,83.8,207,87.9,201,87.8z M212.1,124.3h-3.6V94.9h3.6V124.3z M225.4,124.8c-5.4,0-9.6-4-9.6-10.3c0-6.7,4.4-10.6,9.9-10.6
		c5.8,0,9.6,4.2,9.6,10.3C235.4,121.5,230.2,124.8,225.4,124.8z M238.6,124.8c-1.4,0-2.4-1.1-2.4-2.6c0-1.5,1-2.6,2.5-2.6
		c1.4,0,2.4,1.1,2.4,2.6C241,123.6,240.1,124.8,238.6,124.8z"/>
</g>
<path class="st1" d="M207,74.6c0,3-1.9,6.8-5.9,6.8s-6.2-2.3-6.2-6.8V26.9c-0.1-3.3,2.4-6,5.7-6.1c0.1,0,0.2,0,0.3,0
	c3,0,6.1,0.9,6.1,6.1L207,74.6z"/>
</svg>
