<svg id="Layer_1" data-name="Layer 1" xmlns="http://www.w3.org/2000/svg" viewBox="0 0 407.72 454.88"><defs><style>.cls-1{fill:#cc1f36;}.cls-2{fill:#fff;}</style></defs><title>Artboard 1</title><path d="M95.18,0c-17.68,0-32,17.49-32,39.06s14.33,39.07,32,39.07,32-17.49,32-39.07S112.85,0,95.18,0ZM87.25,28a8.28,8.28,0,1,1,8.28-8.28A8.28,8.28,0,0,1,87.25,28Z"/><path d="M339.22,33c4.7,12.12-9.22,21.16-19.65,16.33-12.49-5.79-24.05-5.57-36.9.61-4.35,2.1-14.34.75-18.07-6.22-3.19-6-.37-13.86,3.31-17.85,13.87-15.08,50.19-15.68,65-2C336,26.77,337.43,28,339.22,33Z"/><path class="cls-1" d="M203.37,267.15c-5-6.84-9.49-12.65-13.61-18.71-11.27-16.59-21.09-33.91-25.15-53.86-2-10-2.5-20.18,1.5-29.8,6.19-14.92,18-22.64,33.86-23.86,14.89-1.14,27.59,3.46,36.56,16,6.85,9.6,8.11,20.57,6.59,31.82-3.06,22.76-14.33,42-26.91,60.62C212.33,255.11,208.1,260.63,203.37,267.15Z"/><circle class="cls-2" cx="203.39" cy="178.65" r="17.98"/><path class="cls-1" d="M212.9,385.09c0-5.75,0-11.5,0-17.25,0-1.19.4-1.57,1.56-1.74a48.84,48.84,0,0,1,10-.7,20.89,20.89,0,0,1,10.09,2.72c4.21,2.59,5.61,6.78,6.41,11.33,1,5.75.81,11.56.44,17.32a51.27,51.27,0,0,1-3.52,15.41,40.08,40.08,0,0,1-10.53,15.63,33.83,33.83,0,0,1-15.16,7.95,35.18,35.18,0,0,1-27.75-4.68,37.55,37.55,0,0,1-11-11.25,45,45,0,0,1-5.18-11.66c-2.11-7.07-2.55-14.3-2.34-21.61a38.75,38.75,0,0,1,1.62-11.22c1.67-5,5.2-7.95,10.31-9.21s10.35-.68,15.52,0a1.27,1.27,0,0,1,1.2,1.46c0,1.06,0,2.12,0,3.19,0,9.9,0,19.81,0,29.72A9.59,9.59,0,0,0,196.6,407a8.8,8.8,0,0,0,8.07,3.37,9.26,9.26,0,0,0,7.38-5.17,9,9,0,0,0,.84-4.36c0-5.26,0-10.52,0-15.79Z"/><circle cx="79.37" cy="252.66" r="6.1"/><circle cx="122.39" cy="252.66" r="6.1"/><circle cx="100.88" cy="280.91" r="6.1"/><circle cx="283.03" cy="252.66" r="6.1"/><circle cx="326.05" cy="252.66" r="6.1"/><circle cx="304.54" cy="280.91" r="6.1"/><path d="M407.26,280.44a42.61,42.61,0,0,0-6.49-18.22c-7.53-11.53-15.44-23-23.42-34.36C345.24,182.05,311.46,135.68,276.05,91a107.33,107.33,0,0,0-16.55-16.7c-14.57-11.81-34.93-17.8-55.64-17.67-20.72-.13-41.08,5.86-55.65,17.67l-.21.17a77.7,77.7,0,0,0-7.68,6.9A107.21,107.21,0,0,0,131.66,91c-35.41,44.73-69.19,91.1-101.29,136.91-8,11.4-15.89,22.83-23.43,34.36A42.89,42.89,0,0,0,.45,280.44c-5,48,33,60.84,67.11,66.19a152.92,152.92,0,0,0,33,.62.87.87,0,0,0,.09.11c5.59,8.95,14.84,23.46,27.34,32.71a107.47,107.47,0,0,0,20.3,11.77c0,2.75,0,5.39,0,7.61a76.26,76.26,0,0,0,1.58,9.64,71.29,71.29,0,0,0,3.58,11.15A59.91,59.91,0,0,0,159.88,432a53.5,53.5,0,0,0,18.47,16.4,57.07,57.07,0,0,0,10.71,4.34,51.6,51.6,0,0,0,31.67-.72,58.67,58.67,0,0,0,10.62-4.88,55.16,55.16,0,0,0,19.14-19.59,61.57,61.57,0,0,0,4.34-9.22c1.09-2.93,2-5.91,2.75-8.92a40.19,40.19,0,0,0,1.09-6.37c.12-1.28.51-2.5.62-3.77,0-.53,0-6.18,0-6.68,0-.29,0-.65,0-1.06a111.15,111.15,0,0,0,18.68-10.61c9.09-6.43,22.32-24.5,28.46-34.13,13.65,1.26,28.07.76,33.77-.14C374.26,341.28,412.31,328.4,407.26,280.44ZM241.4,396.77c0,.42-.07.84-.11,1.25h0c0,.59-.11,1.18-.19,1.76v.09c-.07.56-.16,1.12-.25,1.67l0,.2c-.09.52-.19,1-.29,1.56,0,.11-.05.22-.07.32q-.15.72-.33,1.44c0,.16-.08.32-.12.48q-.15.65-.33,1.29c-.07.22-.13.45-.2.67s-.21.74-.33,1.11l-.31.94c-.1.28-.19.56-.28.84-.21.6-.44,1.19-.67,1.79s-.6,1.49-.93,2.22a43.7,43.7,0,0,1-3.41,6.24,38.19,38.19,0,0,1-2.84,3.76,37.07,37.07,0,0,1-6.75,6.11,33.47,33.47,0,0,1-5.58,3.18,33.88,33.88,0,0,1-6.17,2.07,35.94,35.94,0,0,1-10.11,1,35.56,35.56,0,0,1-17.64-5.69,37.58,37.58,0,0,1-11-11.25,45,45,0,0,1-5.17-11.66c-.25-.84-.48-1.69-.68-2.53-.14-.58-.26-1.17-.38-1.75-.05-.25-.11-.49-.16-.73-.15-.77-.28-1.54-.39-2.32l0-.13a81.41,81.41,0,0,1-.71-14.15,42.44,42.44,0,0,1,1.21-9.86c.13-.46.26-.91.41-1.36a15.24,15.24,0,0,1,1.6-3.4,13.66,13.66,0,0,1,1.06-1.41,12.46,12.46,0,0,1,2.59-2.27,14.84,14.84,0,0,1,3.22-1.58,17.13,17.13,0,0,1,1.84-.55,24.08,24.08,0,0,1,3.89-.64,36.48,36.48,0,0,1,5.82,0c1.29.09,2.58.23,3.87.39l1.94.25a1.28,1.28,0,0,1,1.21,1.46v3.19c0,9.9,0,19.81,0,29.72a13.37,13.37,0,0,0,.2,2.39,9.47,9.47,0,0,0,.61,2.11l.09.18a6.72,6.72,0,0,0,.4.75c0,.08.09.16.14.24a8.42,8.42,0,0,0,.64.87,8.79,8.79,0,0,0,8.07,3.37,9.27,9.27,0,0,0,7.38-5.17,5.69,5.69,0,0,0,.26-.56l0-.12c.06-.16.11-.31.16-.46l0-.1c0-.17.09-.33.12-.5v-.05c0-.18.07-.37.1-.56a14.87,14.87,0,0,0,.11-2q0-7.89,0-15.79h0v-1.77c0-2.31,0-4.63,0-6.94,0-2.85,0-5.69,0-8.54a2.62,2.62,0,0,1,0-.41,1.37,1.37,0,0,1,.32-.84,2,2,0,0,1,1.22-.49,48.89,48.89,0,0,1,10-.7,30.1,30.1,0,0,1,3.93.44,18.86,18.86,0,0,1,5,1.62q.6.3,1.17.66a13,13,0,0,1,1.18.83l.16.12c.34.28.66.58,1,.88l.16.18a12.11,12.11,0,0,1,.81,1l.11.15c.26.36.5.72.72,1.09h0c.22.38.41.77.59,1.16a1.42,1.42,0,0,1,.08.18c.17.38.33.76.47,1.16,0,.07.05.15.08.22.14.4.27.8.38,1.21,0,.06,0,.13.05.19.27,1,.48,2,.66,3C242,385.2,241.77,391,241.4,396.77ZM264.47,365a70,70,0,0,1-7.2,5,30.61,30.61,0,0,0-15.63-18.47c-7.31-3.62-15-4.42-23-4-4.2.24-7.95.11-11.53,1.15a15.21,15.21,0,0,0-2,1,2.31,2.31,0,0,1-1.92.29,58.23,58.23,0,0,0-10-2,53.43,53.43,0,0,0-19.12.55c-6.43,1.51-12.25,4.3-16.76,9.35A32.32,32.32,0,0,0,150.4,370c-.07.2-.13.41-.19.61-2.13-1.26-4.17-2.59-6.12-4-5-3.64-18.35-17.92-22.1-22.72q6.45-1.29,12.74-3a143.05,143.05,0,0,0,18.43-6.08c18.3-7.67,23.19-10.53,37.85-20.44q3.41-2.24,6.73-4.53c5.95-4.13,5-4.2,10.23-.53,15.79,11.93,25.45,16.88,39.41,22.7q5.19,2.29,10.67,4.34l1.89.76c1.82.74,4.52,1.58,7.52,2.45l1.2.38c3.95,1.19,7.95,2.23,12,3.14,1.66.42,3.13.8,4.25,1.1C281.75,348.05,268.7,361.66,264.47,365ZM189.76,248.44c-11.27-16.59-21.09-33.91-25.15-53.86-2-10-2.5-20.18,1.5-29.8,6.19-14.92,18-22.64,33.86-23.86,14.89-1.14,27.59,3.46,36.56,16,6.85,9.6,8.11,20.57,6.59,31.82-3.06,22.76-14.33,42-26.91,60.62-3.88,5.74-8.11,11.26-12.84,17.78C198.37,260.31,193.88,254.5,189.76,248.44ZM352,324.38c-22.68,8.83-52,4.67-75.1-2.41-19.75-6.07-39.84-16.93-52.32-30.26-6.25-6.53-6.15-6.56-.6-13.78,15.14-19.67,28.45-40.39,36.6-64.06,4.68-13.64,7.06-27.73,5.26-42-2.53-20.06-13.18-35.27-31-45.1a60.55,60.55,0,0,0-31.28-7.59c-29.25-.69-55.36,19-61.73,46.82-3.61,15.77-1.1,30.94,3.75,45.93C153.4,236,166.8,257,181.88,277c.68.9,1.35,1.8,2,2.69,5,6.66,5.6,3.69-.08,11.28-15.71,17.09-44.6,28.36-53.05,31-23.09,7.08-52.41,11.24-75.1,2.41-27.83-10.83-35.8-33-25-54.2,4.64-9.12,10.95-17.92,17.34-26.6,33.43-45.37,66.6-88.68,100.39-133.93a138.74,138.74,0,0,1,17.07-19.23c8-7.35,19.26-11.47,32.84-12.19l.53,0,1.43,0,1.81,0c15.84-.13,30.11,3.73,39.27,11.51.3.26.6.51.89.78a138.09,138.09,0,0,1,17.07,19.23c33.79,45.25,67,88.56,100.4,133.93,6.39,8.68,12.7,17.48,17.34,26.6C387.84,291.37,379.87,313.55,352,324.38Z"/></svg>