<?xml version="1.0" encoding="utf-8"?>
<!-- Generator: Adobe Illustrator 24.0.3, SVG Export Plug-In . SVG Version: 6.00 Build 0)  -->
<svg version="1.1" id="Layer_1" xmlns="http://www.w3.org/2000/svg" xmlns:xlink="http://www.w3.org/1999/xlink" x="0px" y="0px"
	 viewBox="0 0 407.7 454.9" style="enable-background:new 0 0 407.7 454.9;" xml:space="preserve">
<style type="text/css">
	.st0{fill:#FFFFFF;}
	.st1{fill:#CC1F36;}
</style>
<title>Artboard 1</title>
<path class="st0" d="M95.2,0c-17.7,0-32,17.5-32,39.1s14.3,39.1,32,39.1s32-17.5,32-39.1S112.8,0,95.2,0z"/>
<path class="st0" d="M339.2,33c4.7,12.1-9.2,21.2-19.6,16.3c-12.5-5.8-24-5.6-36.9,0.6c-4.4,2.1-14.3,0.8-18.1-6.2
	c-3.2-6-0.4-13.9,3.3-17.9c13.9-15.1,50.2-15.7,65-2C336,26.8,337.4,28,339.2,33z"/>
<path class="st1" d="M203.4,267.1c-5-6.8-9.5-12.6-13.6-18.7c-11.3-16.6-21.1-33.9-25.1-53.9c-2-10-2.5-20.2,1.5-29.8
	c6.2-14.9,18-22.6,33.9-23.9c14.9-1.1,27.6,3.5,36.6,16c6.9,9.6,8.1,20.6,6.6,31.8c-3.1,22.8-14.3,42-26.9,60.6
	C212.3,255.1,208.1,260.6,203.4,267.1z"/>
<circle class="st0" cx="203.4" cy="178.6" r="18"/>
<path class="st1" d="M212.9,385.1c0-5.8,0-11.5,0-17.2c0-1.2,0.4-1.6,1.6-1.7c3.3-0.6,6.7-0.8,10-0.7c3.5,0,7,1,10.1,2.7
	c4.2,2.6,5.6,6.8,6.4,11.3c1,5.8,0.8,11.6,0.4,17.3c-0.4,5.3-1.6,10.5-3.5,15.4c-2.2,6-5.8,11.3-10.5,15.6c-4.3,3.9-9.5,6.6-15.2,8
	c-9.5,2.4-19.6,0.7-27.8-4.7c-4.4-2.9-8.2-6.8-11-11.2c-2.3-3.6-4-7.5-5.2-11.7c-2.1-7.1-2.6-14.3-2.3-21.6c0-3.8,0.5-7.6,1.6-11.2
	c1.7-5,5.2-8,10.3-9.2s10.4-0.7,15.5,0c0.7,0,1.2,0.6,1.2,1.3c0,0,0,0.1,0,0.1c0,1.1,0,2.1,0,3.2c0,9.9,0,19.8,0,29.7
	c-0.1,2.3,0.6,4.7,2,6.5c1.9,2.5,5,3.8,8.1,3.4c3.2-0.3,6-2.3,7.4-5.2c0.6-1.4,0.9-2.9,0.8-4.4C212.9,395.6,212.9,390.3,212.9,385.1
	L212.9,385.1z"/>
<circle class="st0" cx="79.4" cy="252.7" r="6.1"/>
<circle class="st0" cx="122.4" cy="252.7" r="6.1"/>
<circle class="st0" cx="100.9" cy="280.9" r="6.1"/>
<circle class="st0" cx="283" cy="252.7" r="6.1"/>
<circle class="st0" cx="326" cy="252.7" r="6.1"/>
<circle class="st0" cx="304.5" cy="280.9" r="6.1"/>
<path class="st0" d="M407.3,280.4c-0.7-6.5-3-12.7-6.5-18.2c-7.5-11.5-15.4-23-23.4-34.4C345.2,182.1,311.5,135.7,276,91
	c-4.9-6.2-10.4-11.8-16.5-16.7c-14.6-11.8-34.9-17.8-55.6-17.7c-20.7-0.1-41.1,5.9-55.7,17.7l-0.2,0.2c-2.7,2.1-5.3,4.4-7.7,6.9
	c-3.1,3-6,6.2-8.7,9.6c-35.4,44.7-69.2,91.1-101.3,136.9c-8,11.4-15.9,22.8-23.4,34.4c-3.5,5.5-5.7,11.7-6.5,18.2
	c-5,48,33,60.8,67.1,66.2c10.9,1.4,22,1.6,33,0.6c0,0,0.1,0.1,0.1,0.1c5.6,9,14.8,23.5,27.3,32.7c6.3,4.7,13.1,8.6,20.3,11.8
	c0,2.8,0,5.4,0,7.6c0.3,3.2,0.8,6.5,1.6,9.6c0.9,3.8,2.1,7.5,3.6,11.1c1.7,4.1,3.9,8.1,6.4,11.8c4.8,6.8,11.1,12.4,18.5,16.4
	c3.4,1.8,7,3.3,10.7,4.3c10.4,3.1,21.4,2.8,31.7-0.7c3.7-1.3,7.3-2.9,10.6-4.9c7.9-4.8,14.5-11.6,19.1-19.6c1.7-2.9,3.2-6,4.3-9.2
	c1.1-2.9,2-5.9,2.8-8.9c0.5-2.1,0.9-4.2,1.1-6.4c0.1-1.3,0.5-2.5,0.6-3.8c0-0.5,0-6.2,0-6.7c0-0.3,0-0.6,0-1.1
	c6.6-2.9,12.8-6.5,18.7-10.6c9.1-6.4,22.3-24.5,28.5-34.1c13.6,1.3,28.1,0.8,33.8-0.1C374.3,341.3,412.3,328.4,407.3,280.4z
	 M241.4,396.8c0,0.4-0.1,0.8-0.1,1.2l0,0c0,0.6-0.1,1.2-0.2,1.8v0.1c-0.1,0.6-0.2,1.1-0.2,1.7v0.2c-0.1,0.5-0.2,1-0.3,1.6
	c0,0.1-0.1,0.2-0.1,0.3c-0.1,0.5-0.2,1-0.3,1.4c0,0.2-0.1,0.3-0.1,0.5c-0.1,0.4-0.2,0.9-0.3,1.3c-0.1,0.2-0.1,0.5-0.2,0.7
	s-0.2,0.7-0.3,1.1l-0.3,0.9c-0.1,0.3-0.2,0.6-0.3,0.8c-0.2,0.6-0.4,1.2-0.7,1.8s-0.6,1.5-0.9,2.2c-1,2.2-2.1,4.3-3.4,6.2
	c-0.9,1.3-1.8,2.6-2.8,3.8c-2,2.3-4.3,4.4-6.8,6.1c-1.8,1.2-3.6,2.3-5.6,3.2c-2,0.9-4.1,1.6-6.2,2.1c-3.3,0.8-6.7,1.1-10.1,1
	c-6.3-0.3-12.4-2.3-17.6-5.7c-4.4-2.9-8.2-6.8-11-11.2c-2.3-3.6-4-7.5-5.2-11.7c-0.2-0.8-0.5-1.7-0.7-2.5c-0.1-0.6-0.3-1.2-0.4-1.8
	c-0.1-0.2-0.1-0.5-0.2-0.7c-0.1-0.8-0.3-1.5-0.4-2.3v-0.1c-0.6-4.7-0.9-9.4-0.7-14.1c0-3.3,0.4-6.6,1.2-9.9c0.1-0.5,0.3-0.9,0.4-1.4
	c0.4-1.2,0.9-2.3,1.6-3.4c0.3-0.5,0.7-1,1.1-1.4c0.8-0.9,1.6-1.6,2.6-2.3c1-0.7,2.1-1.2,3.2-1.6c0.6-0.2,1.2-0.4,1.8-0.5
	c1.3-0.3,2.6-0.5,3.9-0.6c1.9-0.2,3.9-0.2,5.8,0c1.3,0.1,2.6,0.2,3.9,0.4l1.9,0.2c0.7,0,1.3,0.6,1.2,1.3c0,0,0,0.1,0,0.1v3.2
	c0,9.9,0,19.8,0,29.7c0,0.8,0.1,1.6,0.2,2.4c0.1,0.7,0.3,1.4,0.6,2.1l0.1,0.2c0.1,0.3,0.3,0.5,0.4,0.8c0,0.1,0.1,0.2,0.1,0.2
	c0.2,0.3,0.4,0.6,0.6,0.9c1.9,2.5,5,3.8,8.1,3.4c3.2-0.3,6-2.3,7.4-5.2c0.1-0.2,0.2-0.4,0.3-0.6v-0.1c0.1-0.2,0.1-0.3,0.2-0.5V404
	c0-0.2,0.1-0.3,0.1-0.5v0c0-0.2,0.1-0.4,0.1-0.6c0.1-0.7,0.1-1.3,0.1-2c0-5.3,0-10.5,0-15.8l0,0v-1.8c0-2.3,0-4.6,0-6.9
	c0-2.9,0-5.7,0-8.5c0-0.1,0-0.3,0-0.4c0-0.3,0.1-0.6,0.3-0.8c0.3-0.3,0.8-0.5,1.2-0.5c3.3-0.6,6.7-0.8,10-0.7
	c1.3,0.1,2.6,0.2,3.9,0.4c1.7,0.3,3.4,0.8,5,1.6c0.4,0.2,0.8,0.4,1.2,0.7c0.4,0.3,0.8,0.5,1.2,0.8l0.2,0.1c0.3,0.3,0.7,0.6,1,0.9
	l0.2,0.2c0.3,0.3,0.6,0.7,0.8,1l0.1,0.1c0.3,0.4,0.5,0.7,0.7,1.1l0,0c0.2,0.4,0.4,0.8,0.6,1.2c0,0.1,0.1,0.1,0.1,0.2
	c0.2,0.4,0.3,0.8,0.5,1.2c0,0.1,0.1,0.1,0.1,0.2c0.1,0.4,0.3,0.8,0.4,1.2c0,0.1,0,0.1,0.1,0.2c0.3,1,0.5,2,0.7,3
	C242,385.2,241.8,391,241.4,396.8z M264.5,365c-2.3,1.8-4.7,3.5-7.2,5c-2.5-8-8.1-14.7-15.6-18.5c-7.3-3.6-15-4.4-23-4
	c-4.2,0.2-7.9,0.1-11.5,1.1c-0.7,0.3-1.4,0.6-2,1c-0.6,0.4-1.3,0.5-1.9,0.3c-3.3-1-6.6-1.6-10-2c-6.4-1-12.8-0.8-19.1,0.5
	c-6.4,1.5-12.2,4.3-16.8,9.4c-3.2,3.5-5.5,7.6-6.9,12.1c-0.1,0.2-0.1,0.4-0.2,0.6c-2.1-1.3-4.2-2.6-6.1-4
	c-5-3.6-18.3-17.9-22.1-22.7c4.3-0.9,8.5-1.9,12.7-3c6.3-1.6,12.4-3.6,18.4-6.1c18.3-7.7,23.2-10.5,37.9-20.4c2.3-1.5,4.5-3,6.7-4.5
	c5.9-4.1,5-4.2,10.2-0.5c15.8,11.9,25.4,16.9,39.4,22.7c3.5,1.5,7,3,10.7,4.3l1.9,0.8c1.8,0.7,4.5,1.6,7.5,2.5l1.2,0.4
	c4,1.2,8,2.2,12,3.1c1.7,0.4,3.1,0.8,4.2,1.1C281.8,348,268.7,361.7,264.5,365z M189.8,248.4c-11.3-16.6-21.1-33.9-25.1-53.9
	c-2-10-2.5-20.2,1.5-29.8c6.2-14.9,18-22.6,33.9-23.9c14.9-1.1,27.6,3.5,36.6,16c6.9,9.6,8.1,20.6,6.6,31.8
	c-3.1,22.8-14.3,42-26.9,60.6c-3.9,5.7-8.1,11.3-12.8,17.8C198.4,260.3,193.9,254.5,189.8,248.4z M352,324.4
	c-22.7,8.8-52,4.7-75.1-2.4c-19.8-6.1-39.8-16.9-52.3-30.3c-6.2-6.5-6.1-6.6-0.6-13.8c15.1-19.7,28.4-40.4,36.6-64.1
	c4.7-13.6,7.1-27.7,5.3-42c-2.5-20.1-13.2-35.3-31-45.1c-9.6-5.3-20.4-7.9-31.3-7.6c-29.2-0.7-55.4,19-61.7,46.8
	c-3.6,15.8-1.1,30.9,3.8,45.9c7.8,24.1,21.2,45.1,36.3,65.1c0.7,0.9,1.4,1.8,2,2.7c5,6.7,5.6,3.7-0.1,11.3
	c-15.7,17.1-44.6,28.4-53.1,31c-23.1,7.1-52.4,11.2-75.1,2.4c-27.8-10.8-35.8-33-25-54.2c4.6-9.1,11-17.9,17.3-26.6
	c33.4-45.4,66.6-88.7,100.4-133.9c5.1-6.9,10.8-13.4,17.1-19.2c8-7.3,19.3-11.5,32.8-12.2h0.5h1.4h1.8c15.8-0.1,30.1,3.7,39.3,11.5
	c0.3,0.3,0.6,0.5,0.9,0.8c6.3,5.9,12,12.3,17.1,19.2c33.8,45.2,67,88.6,100.4,133.9c6.4,8.7,12.7,17.5,17.3,26.6
	C387.8,291.4,379.9,313.5,352,324.4z"/>
</svg>
