<svg id="Layer_1" data-name="Layer 1" xmlns="http://www.w3.org/2000/svg" viewBox="0 0 383.68 383.68"><defs><style>.cls-1{fill:#2e5e69;}.cls-2{fill:#f4c271;}</style></defs><title>Artboard 1</title><circle class="cls-1" cx="191.84" cy="191.84" r="191.84"/><path class="cls-2" d="M191.9,289.22c-8.56-7.77-17-15.36-25.35-23-17.12-15.67-34.36-31.21-49.78-48.61-10.26-11.57-19.7-23.75-25.5-38.26-7.81-19.54-7.93-38.86,3.19-57.27,15-24.78,46.17-34.24,73.58-22.68a63.51,63.51,0,0,1,22.6,15.85,7.59,7.59,0,0,1,.85,1.34c3.58-3.19,6.61-6.25,10-8.87,22.21-17.22,53-17.74,74.26-.93,17.28,13.65,24.05,32,21.81,53.63-1.71,16.53-9.52,30.49-19.25,43.52-12.3,16.48-27,30.77-42,44.72-14.26,13.26-28.73,26.29-43.1,39.43C192.88,288.4,192.5,288.71,191.9,289.22Z"/></svg>