<svg id="Layer_1" data-name="Layer 1" xmlns="http://www.w3.org/2000/svg" viewBox="0 0 385.8 433.66"><defs><style>.cls-1{fill:#2e5e69;}</style></defs><title>Artboard 1</title><path class="cls-1" d="M380.29,32c-6.47-14.49-17.71-24.73-31.66-28.87-13.88-5-29.37-4-43.65,2.69s-25.59,18.78-30.68,32.9c-3,6.55-5.58,13.42-8.35,20.69-10.37,27.18-22.12,58-57.34,85.28l-16.84,13L177,146.25c-35.17-27.36-46.85-58.2-57.15-85.4-2.76-7.28-5.36-14.16-8.31-20.71C106.48,26,95.33,14,80.94,7.17S51.18-.57,37.29,4.38c-14,4.11-25.22,14.33-31.72,28.79A63.38,63.38,0,0,0,2.29,76c3.27,15.2,13.3,29.46,26.87,38.15,11.86,7.59,25.26,10.22,37.73,7.4,18.77-4.24,23.94-10,27.72-14.15,2-2.2,3.18-3.52,6.1-4.35,4.52-1.27,11.13,11.17,19.48,26.93,8.54,16.09,20.21,38.09,38.2,63.08L51.86,343.44l-.14.21c-18,29.34-19.42,59-4.09,83.41l2.95,4.7L192.12,239.17,334.39,433.66l2.95-4.7c15.39-24.42,14-54-3.9-83.42L226,193.1l.72-1v0c18.27-25.19,30.1-47.37,38.74-63.56,8.39-15.74,15-28.18,19.55-26.89,2.91.83,4.11,2.16,6.08,4.36,3.77,4.19,8.93,9.93,27.69,14.22,12.47,2.85,25.87.25,37.75-7.33,13.58-8.66,23.65-22.89,27-38.08A63.42,63.42,0,0,0,380.29,32ZM93,66v.23c0,12-7,22-18.82,26.9a35.86,35.86,0,0,1-39.25-7.75c-7.77-7.78-11.62-20.5-9.79-32.41C26.66,43,31.85,35.26,39.75,31.13L40,31a28.54,28.54,0,0,1,15.36-4.45,34.93,34.93,0,0,1,17.77,5.2C85.8,39.23,93.78,53,93,66ZM350.82,84.11a35.91,35.91,0,0,1-39.28,7.66c-11.77-4.9-18.78-15-18.75-26.95V64.6c-.75-13,7.26-26.71,19.94-34.18a34.89,34.89,0,0,1,17.72-5.16,28.54,28.54,0,0,1,15.41,4.48l.26.15C354,34,359.18,41.79,360.67,51.72,362.47,63.63,358.6,76.34,350.82,84.11Z"/></svg>