<svg id="Layer_1" data-name="Layer 1" xmlns="http://www.w3.org/2000/svg" viewBox="0 0 247.58 192.31"><defs><style>.cls-1{fill:#2e5e69;}</style></defs><title>Artboard 1</title><path class="cls-1" d="M196.67,65.41V48.81h10v-21h-10v-15h-25v15h-11v21h11V65.23a63.86,63.86,0,1,0,25,.18ZM184,166.62a38.77,38.77,0,1,1,38.77-38.77A38.81,38.81,0,0,1,184,166.62Z"/><path class="cls-1" d="M127.58,63.77A63.79,63.79,0,0,0,0,63.77c0,31.07,22.67,57,51.67,62.62v28l-8.19-7L30,163.37l34.3,28.94,35.33-28.83L86.2,147.21l-9.53,7.66V126.2A64,64,0,0,0,127.58,63.77Zm-102.37,0A38.77,38.77,0,1,1,64,102.54,38.81,38.81,0,0,1,25.21,63.77Z"/></svg>