<svg id="Layer_1" data-name="Layer 1" xmlns="http://www.w3.org/2000/svg" viewBox="0 0 491.19 490.25"><defs><style>.cls-1{fill:#2e5e69;}</style></defs><title>Artboard 1</title><path class="cls-1" d="M23.56,169.84c10.29-.08,20.59,0,31.61,0V422.48H436.3V169.82c10.82,0,21.13.28,31.4-.19a11.55,11.55,0,0,0,7.71-4c2.55-3.32.64-6.93-4.51-10.5Q360.41,78.43,250,1.72c-3.29-2.29-5.39-2.3-8.68,0Q165.43,54.6,89.38,107.21,54.67,131.29,20,155.35c-3.2,2.21-5.87,4.57-4.73,8.94S19.43,169.87,23.56,169.84Zm353.05,68A12.46,12.46,0,0,1,394.8,253.7a16.84,16.84,0,0,1-13,9.28c-6,.89-10.58-3-11.41-9.23-.11-.78-.13-1.58-.2-2.49C370.4,246,372,241.13,376.61,237.84Zm-21.46-28.15A14.31,14.31,0,0,1,372,227a20.26,20.26,0,0,1-7.75,12.07c-6.29,4.76-13.55,3.26-17.68-3.61a20.69,20.69,0,0,1-2.93-10C343.65,217.19,348.27,211.12,355.15,209.69Zm.21,43.69a16.22,16.22,0,0,1,8.14,13.2,14.93,14.93,0,0,0,5.23,10.19c1.37,1.24,2.77,2.45,4.11,3.72a16.42,16.42,0,0,1-2.61,26.19C365,310,359.06,311.4,353,312.1c-4.33.51-8.69.68-11.12.86-9.78-.17-17.62-.55-25.12-3.16a32.56,32.56,0,0,1-7.24-3.46c-6.2-4.06-8.34-9.92-7-17.16a14.83,14.83,0,0,1,4.76-8.61c1.79-1.63,3.59-3.25,5.31-4.95a14.1,14.1,0,0,0,4.13-9.18,16.54,16.54,0,0,1,9.14-13.7C335.7,247.49,345.71,247.55,355.36,253.38ZM322,210a14.51,14.51,0,0,1,15.07,14.1c0,.4,0,.79,0,1.19-.15,5.18-1.55,9.91-5.26,13.69s-8.72,4.67-13.39,2a19,19,0,0,1-9.95-16A14.09,14.09,0,0,1,322,210Zm-32.19,27.28a12.18,12.18,0,0,1,15,2.2c4.56,5,5.68,10.93,3.55,17.32a9.13,9.13,0,0,1-9.13,6.3c-6.72,0-13.87-5.55-15.45-12A12.4,12.4,0,0,1,289.83,237.26ZM100.38,283c.39-27.51,22.19-51.11,48.88-54.21,28.7-3.35,54.51,14,61.7,41.65a53.81,53.81,0,0,1,1.72,13.31c.14,34.65.09,69.3.08,104,0,1.29-.16,2.58-.26,4.15H100.74a17.52,17.52,0,0,1-.48-2.9C100.25,353.59,99.89,318.26,100.38,283Z"/><path class="cls-1" d="M0,444.69v45.56H491.19V444.69Z"/></svg>