<?xml version="1.0" encoding="utf-8"?>
<!-- Generator: Adobe Illustrator 24.0.3, SVG Export Plug-In . SVG Version: 6.00 Build 0)  -->
<svg version="1.1" id="Layer_1" xmlns="http://www.w3.org/2000/svg" xmlns:xlink="http://www.w3.org/1999/xlink" x="0px" y="0px"
	 viewBox="0 0 465.6 426.5" style="enable-background:new 0 0 465.6 426.5;" xml:space="preserve">
<style type="text/css">
	.st0{fill:#EBEBEB;stroke:#666666;stroke-width:4;stroke-miterlimit:10;}
	.st1{fill:#CC1F36;}
	.st2{fill:#FFFFFF;}
	.st3{fill:#666666;}
</style>
<title>Artboard 1</title>
<path class="st0" d="M11.1,171.8c10.3-0.1,20.6,0,31.6,0v252.6h381.1V171.8c10.8,0,21.1,0.3,31.4-0.2c3-0.3,5.8-1.7,7.7-4
	c2.5-3.3,0.6-6.9-4.5-10.5C384.8,106,311.1,54.9,237.5,3.7c-3.3-2.3-5.4-2.3-8.7,0C178.2,39,127.6,74.1,76.9,109.2
	c-23.1,16.1-46.3,32.1-69.4,48.1c-3.2,2.2-5.9,4.6-4.7,8.9S6.9,171.9,11.1,171.8z"/>
<g>
	<path d="M207.7,37.8c-4.2,0-7.5,4.1-7.5,9.2s3.4,9.2,7.5,9.2s7.5-4.1,7.5-9.2S211.8,37.8,207.7,37.8z M205.8,44.4c-1.1,0-2-0.9-2-2
		s0.9-2,2-2c1.1,0,2,0.9,2,2l0,0C207.7,43.5,206.9,44.4,205.8,44.4z"/>
	<path d="M265.1,45.5c1.1,2.9-2.2,5-4.6,3.8c-2.9-1.4-5.7-1.3-8.7,0.1c-1,0.5-3.4,0.2-4.3-1.5c-0.8-1.4-0.1-3.3,0.8-4.2
		c3.3-3.6,11.8-3.7,15.3-0.5C264.4,44.1,264.7,44.4,265.1,45.5z"/>
	<path class="st1" d="M233.1,100.7c-1.2-1.6-2.2-3-3.2-4.4c-2.7-3.9-5-8-5.9-12.7c-0.5-2.4-0.6-4.8,0.4-7c1.5-3.5,4.2-5.3,8-5.6
		c3.5-0.3,6.5,0.8,8.6,3.8c1.6,2.3,1.9,4.8,1.6,7.5c-0.7,5.4-3.4,9.9-6.3,14.3C235.3,97.9,234.3,99.2,233.1,100.7z"/>
	<circle class="st2" cx="233.1" cy="79.9" r="4.2"/>
	<path class="st1" d="M235.4,128.5c0-1.4,0-2.7,0-4.1c0-0.3,0.1-0.4,0.4-0.4c0.8-0.1,1.6-0.2,2.4-0.2c0.8,0,1.7,0.2,2.4,0.6
		c1,0.6,1.3,1.6,1.5,2.7c0.2,1.4,0.2,2.7,0.1,4.1c-0.1,1.2-0.4,2.5-0.8,3.6c-0.5,1.4-1.4,2.7-2.5,3.7c-1,0.9-2.2,1.6-3.6,1.9
		c-2.2,0.6-4.6,0.2-6.5-1.1c-1-0.7-1.9-1.6-2.6-2.7c-0.5-0.9-0.9-1.8-1.2-2.7c-0.5-1.7-0.6-3.4-0.6-5.1c0-0.9,0.1-1.8,0.4-2.6
		c0.4-1.2,1.2-1.9,2.4-2.2s2.4-0.2,3.7,0c0.2,0,0.3,0.1,0.3,0.3c0,0,0,0,0,0c0,0.2,0,0.5,0,0.8c0,2.3,0,4.7,0,7
		c0,0.6,0.1,1.1,0.5,1.5c0.4,0.6,1.2,0.9,1.9,0.8c0.8-0.1,1.4-0.5,1.7-1.2c0.2-0.3,0.2-0.7,0.2-1C235.4,131,235.4,129.7,235.4,128.5
		L235.4,128.5z"/>
	<circle cx="203.9" cy="97.3" r="1.4"/>
	<circle cx="214.1" cy="97.3" r="1.4"/>
	<circle cx="209" cy="103.9" r="1.4"/>
	<circle cx="251.9" cy="97.3" r="1.4"/>
	<circle cx="262" cy="97.3" r="1.4"/>
	<circle cx="257" cy="103.9" r="1.4"/>
	<path d="M281.2,103.8c-0.2-1.5-0.7-3-1.5-4.3c-1.8-2.7-3.6-5.4-5.5-8.1c-7.6-10.8-15.5-21.7-23.9-32.2c-1.2-1.5-2.5-2.8-3.9-3.9
		c-3.4-2.8-8.2-4.2-13.1-4.2c-4.9,0-9.7,1.4-13.1,4.2l0,0c-0.6,0.5-1.2,1-1.8,1.6c-0.7,0.7-1.4,1.5-2,2.3
		c-8.3,10.5-16.3,21.5-23.9,32.3c-1.9,2.7-3.7,5.4-5.5,8.1c-0.8,1.3-1.4,2.8-1.5,4.3c-1.2,11.3,7.8,14.3,15.8,15.6
		c2.6,0.3,5.2,0.4,7.8,0.1c0,0,0,0,0,0c1.3,2.1,3.5,5.5,6.4,7.7c1.5,1.1,3.1,2,4.8,2.8c0,0.6,0,1.3,0,1.8c0.1,0.8,0.2,1.5,0.4,2.3
		c0.2,0.9,0.5,1.8,0.8,2.6c0.4,1,0.9,1.9,1.5,2.8c1.1,1.6,2.6,2.9,4.4,3.9c0.8,0.4,1.6,0.8,2.5,1c2.4,0.7,5.1,0.7,7.5-0.2
		c0.9-0.3,1.7-0.7,2.5-1.1c1.9-1.1,3.4-2.7,4.5-4.6c0.4-0.7,0.7-1.4,1-2.2c0.3-0.7,0.5-1.4,0.6-2.1c0.1-0.5,0.2-1,0.3-1.5
		c0-0.3,0.1-0.6,0.1-0.9c0-0.1,0-1.5,0-1.6c0-0.1,0-0.2,0-0.2c1.5-0.7,3-1.5,4.4-2.5c2.1-1.5,5.3-5.8,6.7-8c3.2,0.3,6.6,0.2,8,0
		C273.4,118.2,282.4,115.1,281.2,103.8z M242.1,131.2c0,0.1,0,0.2,0,0.3l0,0c0,0.1,0,0.3,0,0.4v0c0,0.1,0,0.3-0.1,0.4v0
		c0,0.1,0,0.2-0.1,0.4c0,0,0,0.1,0,0.1c0,0.1,0,0.2-0.1,0.3c0,0,0,0.1,0,0.1c0,0.1,0,0.2-0.1,0.3c0,0.1,0,0.1,0,0.2
		c0,0.1,0,0.2-0.1,0.3l-0.1,0.2c0,0.1,0,0.1-0.1,0.2c0,0.1-0.1,0.3-0.2,0.4s-0.1,0.4-0.2,0.5c-0.2,0.5-0.5,1-0.8,1.5
		c-0.2,0.3-0.4,0.6-0.7,0.9c-0.5,0.5-1,1-1.6,1.4c-0.4,0.3-0.9,0.5-1.3,0.7c-0.5,0.2-1,0.4-1.5,0.5c-0.8,0.2-1.6,0.3-2.4,0.2
		c-1.5-0.1-2.9-0.5-4.2-1.3c-1-0.7-1.9-1.6-2.6-2.7c-0.5-0.9-0.9-1.8-1.2-2.7c-0.1-0.2-0.1-0.4-0.2-0.6c0-0.1-0.1-0.3-0.1-0.4
		c0-0.1,0-0.1,0-0.2c0-0.2-0.1-0.4-0.1-0.5v0c-0.2-1.1-0.2-2.2-0.2-3.3c0-0.8,0.1-1.6,0.3-2.3c0-0.1,0.1-0.2,0.1-0.3
		c0.1-0.3,0.2-0.6,0.4-0.8c0.1-0.1,0.2-0.2,0.2-0.3c0.2-0.2,0.4-0.4,0.6-0.5c0.2-0.2,0.5-0.3,0.8-0.4c0.1-0.1,0.3-0.1,0.4-0.1
		c0.3-0.1,0.6-0.1,0.9-0.2c0.5,0,0.9,0,1.4,0c0.3,0,0.6,0.1,0.9,0.1l0.5,0.1c0.2,0,0.3,0.1,0.3,0.3c0,0,0,0,0,0v0.8c0,2.3,0,4.7,0,7
		c0,0.2,0,0.4,0,0.6c0,0.2,0.1,0.3,0.1,0.5l0,0c0,0.1,0.1,0.1,0.1,0.2c0,0,0,0,0,0.1c0,0.1,0.1,0.1,0.2,0.2c0.4,0.6,1.2,0.9,1.9,0.8
		c0.8-0.1,1.4-0.5,1.7-1.2c0,0,0-0.1,0.1-0.1v0c0,0,0-0.1,0-0.1v0c0,0,0-0.1,0-0.1v0c0,0,0-0.1,0-0.1c0-0.2,0-0.3,0-0.5
		c0-1.2,0-2.5,0-3.7l0,0v-0.4c0-0.5,0-1.1,0-1.6c0-0.7,0-1.3,0-2c0,0,0-0.1,0-0.1c0-0.1,0-0.1,0.1-0.2c0.1-0.1,0.2-0.1,0.3-0.1
		c0.8-0.1,1.6-0.2,2.4-0.2c0.3,0,0.6,0,0.9,0.1c0.4,0.1,0.8,0.2,1.2,0.4c0.1,0,0.2,0.1,0.3,0.2c0.1,0.1,0.2,0.1,0.3,0.2l0,0
		c0.1,0.1,0.2,0.1,0.2,0.2l0,0c0.1,0.1,0.1,0.2,0.2,0.2l0,0c0.1,0.1,0.1,0.2,0.2,0.3l0,0c0.1,0.1,0.1,0.2,0.1,0.3c0,0,0,0,0,0
		c0,0.1,0.1,0.2,0.1,0.3c0,0,0,0,0,0.1c0,0.1,0.1,0.2,0.1,0.3c0,0,0,0,0,0c0.1,0.2,0.1,0.5,0.2,0.7
		C242.2,128.5,242.2,129.9,242.1,131.2z M247.5,123.8c-0.5,0.4-1.1,0.8-1.7,1.2c-0.6-1.9-1.9-3.5-3.7-4.4c-1.7-0.9-3.5-1-5.4-0.9
		c-1,0.1-1.9,0-2.7,0.3c-0.2,0.1-0.3,0.1-0.5,0.2c-0.1,0.1-0.3,0.1-0.5,0.1c-0.8-0.2-1.6-0.4-2.4-0.5c-1.5-0.2-3-0.2-4.5,0.1
		c-1.5,0.4-2.9,1-3.9,2.2c-0.7,0.8-1.3,1.8-1.6,2.9c0,0,0,0.1,0,0.1c-0.5-0.3-1-0.6-1.4-0.9c-1.2-0.9-4.3-4.2-5.2-5.4
		c1-0.2,2-0.4,3-0.7c1.5-0.4,2.9-0.9,4.3-1.4c4.3-1.8,5.5-2.5,8.9-4.8c0.5-0.4,1.1-0.7,1.6-1.1c1.4-1,1.2-1,2.4-0.1
		c3.7,2.8,6,4,9.3,5.3c0.8,0.4,1.7,0.7,2.5,1l0.4,0.2c0.4,0.2,1.1,0.4,1.8,0.6l0.3,0.1c0.9,0.3,1.9,0.5,2.8,0.7
		c0.4,0.1,0.7,0.2,1,0.3C251.6,119.8,248.5,123,247.5,123.8z M229.9,96.3c-2.7-3.9-5-8-5.9-12.7c-0.5-2.4-0.6-4.8,0.4-7
		c1.5-3.5,4.2-5.3,8-5.6c3.5-0.3,6.5,0.8,8.6,3.8c1.6,2.3,1.9,4.8,1.6,7.5c-0.7,5.4-3.4,9.9-6.3,14.3c-0.9,1.4-1.9,2.7-3,4.2
		C232,99.1,230.9,97.7,229.9,96.3z M268.2,114.2c-5.3,2.1-12.2,1.1-17.7-0.6c-4.7-1.4-9.4-4-12.3-7.1c-1.5-1.5-1.4-1.5-0.1-3.2
		c3.6-4.6,6.7-9.5,8.6-15.1c1.1-3.2,1.7-6.5,1.2-9.9c-0.6-4.7-3.1-8.3-7.3-10.6c-2.2-1.2-4.8-1.9-7.4-1.8c-6.9-0.2-13,4.5-14.5,11
		c-0.9,3.7-0.3,7.3,0.9,10.8c1.8,5.7,5,10.6,8.6,15.3c0.2,0.2,0.3,0.4,0.5,0.6c1.2,1.6,1.3,0.9,0,2.7c-3.7,4-10.5,6.7-12.5,7.3
		c-5.4,1.7-12.3,2.6-17.7,0.6c-6.6-2.6-8.4-7.8-5.9-12.8c1.1-2.1,2.6-4.2,4.1-6.3c7.9-10.7,15.7-20.9,23.6-31.5
		c1.2-1.6,2.5-3.1,4-4.5c1.9-1.7,4.5-2.7,7.7-2.9h0.1h0.3h0.4c3.7,0,7.1,0.9,9.3,2.7c0.1,0.1,0.1,0.1,0.2,0.2c1.5,1.4,2.8,2.9,4,4.5
		c8,10.7,15.8,20.9,23.7,31.5c1.5,2,3,4.1,4.1,6.3C276.6,106.4,274.7,111.6,268.2,114.2z"/>
</g>
<g>
	<path class="st3" d="M102.2,173.5h-2.9v-19.9h5.7c4.7,0,7,2.5,7,6c0,3.5-2.3,6-7,6h-2.8V173.5z M102.2,163h2.8
		c3.3,0,4.1-1.9,4.1-3.4s-0.8-3.4-4.1-3.4h-2.8V163z"/>
	<path class="st3" d="M121.1,173.9c-5,0-8-4.2-8-7.9c0-4.1,3.4-7.7,8-7.7c4.5,0,8,3.5,8,7.8C129.1,169.6,126.1,173.9,121.1,173.9z
		 M121.1,160.8c-3.1,0-5.2,2.6-5.2,5.3c0,2.7,2.1,5.3,5.2,5.3c3,0,5.2-2.5,5.2-5.3C126.3,163.4,124.2,160.8,121.1,160.8z"/>
	<path class="st3" d="M134.7,158.6v8.1c0,3.7,1.6,4.6,3.7,4.6c2.3,0,3.9-1.5,3.9-4.7v-8h2.8v14.9h-2.5v-1.6h-0.1
		c-0.8,1.3-2.5,2-4.4,2c-1.7,0-3.2-0.5-4.2-1.5c-1.2-1.1-2-2.7-2-5.7v-8.1H134.7z"/>
	<path class="st3" d="M159.1,173.5v-8.1c0-1.2,0-4.6-3.7-4.6c-2.3,0-3.9,1.6-3.9,4.6v8.1h-2.8v-14.9h2.6v1.6h0.1c1.5-2,3.8-2,4.3-2
		c2.3,0,4.2,1,5.3,2.7c0.6,1,0.9,2.1,0.9,3.8v8.8H159.1z"/>
	<path class="st3" d="M177.7,173.5v-2.1h-0.1c-1.2,1.6-3.1,2.5-5.3,2.5c-4.9,0-7.7-3.8-7.7-7.8c0-3.6,2.5-7.9,7.7-7.9
		c2.1,0,4,0.9,5,2.2h0.1v-6.8h2.8v19.9H177.7z M172.6,160.8c-3.4,0-5.1,3-5.1,5.3c0,2.7,2.1,5.2,5.1,5.2c2.9,0,5.2-2.4,5.2-5.2
		C177.7,162.9,175.5,160.8,172.6,160.8z"/>
	<path class="st3" d="M189.8,162.6c-0.2-1.2-0.9-1.8-1.9-1.8c-1,0-1.7,0.6-1.7,1.6c0,1.2,1.1,1.6,2.3,1.9c1.2,0.3,4.5,1.3,4.5,4.8
		c0,2.6-1.8,4.8-5,4.8c-1.9,0-5.3-1.2-5.3-5.3h2.8c0.1,1.7,1,2.7,2.5,2.7c1.3,0,2.1-0.8,2.1-2c0-1.3-1.2-1.8-2.6-2.3
		c-1.6-0.6-4.2-1.3-4.2-4.5c0-2.2,1.9-4.3,4.7-4.3c1.7,0,4.5,1,4.6,4.3H189.8z"/>
	<path class="st3" d="M215.4,173.5l-2.2-5.9H206l-2.2,5.9h-3.1l7.5-19.9h2.6l7.5,19.9H215.4z M212.2,165l-2.5-7.6h-0.1L207,165
		H212.2z"/>
	<path class="st3" d="M220.6,173.5v-14.9h2.6v1.3h0.1c1.2-1.7,3.1-1.7,3.8-1.7v2.9c-0.4,0-1.3,0.2-2,0.5c-0.9,0.5-1.6,1.6-1.6,3.7
		v8.1H220.6z"/>
	<path class="st3" d="M235.9,173.9c-5,0-8-4.2-8-7.9c0-4.1,3.4-7.7,8-7.7c4.5,0,8,3.5,8,7.8C243.9,169.6,240.9,173.9,235.9,173.9z
		 M235.9,160.8c-3.1,0-5.2,2.6-5.2,5.3c0,2.7,2.1,5.3,5.2,5.3c3,0,5.2-2.5,5.2-5.3C241.1,163.4,239,160.8,235.9,160.8z"/>
	<path class="st3" d="M249.5,158.6v8.1c0,3.7,1.6,4.6,3.7,4.6c2.3,0,3.9-1.5,3.9-4.7v-8h2.8v14.9h-2.5v-1.6h-0.1
		c-0.8,1.3-2.5,2-4.4,2c-1.7,0-3.2-0.5-4.2-1.5c-1.2-1.1-2-2.7-2-5.7v-8.1H249.5z"/>
	<path class="st3" d="M273.9,173.5v-8.1c0-1.2,0-4.6-3.7-4.6c-2.3,0-3.9,1.6-3.9,4.6v8.1h-2.8v-14.9h2.6v1.6h0.1c1.5-2,3.8-2,4.3-2
		c2.3,0,4.2,1,5.3,2.7c0.6,1,0.9,2.1,0.9,3.8v8.8H273.9z"/>
	<path class="st3" d="M292.5,173.5v-2.1h-0.1c-1.2,1.6-3.1,2.5-5.3,2.5c-4.9,0-7.7-3.8-7.7-7.8c0-3.6,2.5-7.9,7.7-7.9
		c2.1,0,4,0.9,5,2.2h0.1v-6.8h2.8v19.9H292.5z M287.4,160.8c-3.4,0-5.1,3-5.1,5.3c0,2.7,2.1,5.2,5.1,5.2c2.9,0,5.2-2.4,5.2-5.2
		C292.5,162.9,290.3,160.8,287.4,160.8z"/>
	<path class="st3" d="M307.7,173.5v-17.2h-3.8v-2.7h10.5v2.7h-3.8v17.2H307.7z"/>
	<path class="st3" d="M322.3,173.9c-5,0-8-4.2-8-7.9c0-4.1,3.4-7.7,8-7.7c4.5,0,8,3.5,8,7.8C330.4,169.6,327.4,173.9,322.3,173.9z
		 M322.3,160.8c-3.1,0-5.2,2.6-5.2,5.3c0,2.7,2.1,5.3,5.2,5.3c3,0,5.2-2.5,5.2-5.3C327.6,163.4,325.5,160.8,322.3,160.8z"/>
	<path class="st3" d="M346.4,173.5h-1.6l-3.2-10h-0.1l-3.2,10h-1.5l-5.6-14.9h3l3.3,9.7h0.1l3.1-9.7h1.8l3.1,9.7h0.1l3.3-9.7h3
		L346.4,173.5z"/>
	<path class="st3" d="M364.4,173.5v-8.1c0-1.2,0-4.6-3.7-4.6c-2.3,0-3.9,1.6-3.9,4.6v8.1H354v-14.9h2.6v1.6h0.1c1.5-2,3.8-2,4.3-2
		c2.3,0,4.2,1,5.3,2.7c0.6,1,0.9,2.1,0.9,3.8v8.8H364.4z"/>
</g>
</svg>
