<svg id="Layer_1" data-name="Layer 1" xmlns="http://www.w3.org/2000/svg" viewBox="0 0 152.77 179.24"><defs><style>.cls-1{fill:#2e5e69;}</style></defs><title>Artboard 1</title><path class="cls-1" d="M152.77,103c-.05,36.9-26.75,69.12-63,75-29.67,4.8-54.53-4.68-73.39-28.11-21.73-27-21.66-66-.53-93.33A75.7,75.7,0,0,1,51,31a1.59,1.59,0,0,0,1.22-1.72c.45-8.49,3.07-16.15,9-22.42C67.7.1,76.58-1.83,84.48,1.81c5.5,2.54,9.29,6.83,12,12.11a36.09,36.09,0,0,1,4,15.43A1.6,1.6,0,0,0,101.79,31q41,15.74,49.77,58.74a52.18,52.18,0,0,1,.76,5.71C152.53,98,152.63,100.51,152.77,103Zm-74.5,46.08c2.22-.16,6.18-.32,10.1-.78,5.52-.64,10.87-1.92,15.66-4.93a14.9,14.9,0,0,0,2.37-23.78c-1.21-1.15-2.49-2.25-3.73-3.38A13.54,13.54,0,0,1,97.92,107a14.74,14.74,0,0,0-7.39-12c-8.76-5.29-17.86-5.35-26.83-.58a15,15,0,0,0-8.3,12.44,12.77,12.77,0,0,1-3.75,8.34c-1.56,1.55-3.19,3-4.82,4.49a13.41,13.41,0,0,0-4.32,7.82c-1.19,6.58.75,11.9,6.38,15.59a30.05,30.05,0,0,0,6.57,3.14C62.27,148.61,69.39,149,78.27,149.11Zm1.63-79.5a18.88,18.88,0,0,0,2.67,9.12C86.32,85,92.91,86.33,98.62,82a18.36,18.36,0,0,0,7-11A13,13,0,0,0,90.34,55.32C84.09,56.62,79.89,62.13,79.9,69.61Zm-6-.14c0-.36,0-.72,0-1.07A13.17,13.17,0,0,0,60.25,55.59,12.78,12.78,0,0,0,48,69.16a17.22,17.22,0,0,0,9,14.53c4.24,2.46,8.73,1.72,12.16-1.78S73.8,74.17,73.94,69.47ZM39.6,103.81a8.28,8.28,0,0,0,8.29-5.72,15,15,0,0,0-3.22-15.73,11.08,11.08,0,0,0-13.65-2A11.27,11.27,0,0,0,25.57,93C27,98.77,33.5,103.8,39.6,103.81ZM104,93.08c.06.82.09,1.54.18,2.26.75,5.7,5,9.19,10.36,8.38a15.31,15.31,0,0,0,11.85-8.43,11.32,11.32,0,0,0-16.52-14.4C105.6,83.87,104.18,88.25,104,93.08ZM90.18,27.9a1.69,1.69,0,0,0,.12-.43c-.72-5.32-2.49-10.18-6.39-14C79.28,8.89,73.27,9,68.7,13.59,65.05,17.3,63.33,21.92,62.54,27a6,6,0,0,0,0,1A77.15,77.15,0,0,1,90.18,27.9Z"/></svg>