<svg id="Layer_1" data-name="Layer 1" xmlns="http://www.w3.org/2000/svg" viewBox="0 0 737.41 589.83"><defs><style>.cls-1{fill:#2e5e69;}</style></defs><title>Artboard 1</title><path class="cls-1" d="M368.77,589.79q-157,0-314,0c-14.17,0-26.78-4-37.36-13.51C6.08,566.06.4,553.14.05,537.86c0-1.25,0-2.5,0-3.75Q0,393.74,0,253.38c0-5.79-.45-4.83,4.72-4.83,31.33,0,62.66,0,94,0a35.17,35.17,0,0,0,34.16-25.09c6.49-20.86-8.37-43.16-30.1-45.14-2-.18-4-.23-6-.23q-46.62,0-93.24,0C0,178,0,178,0,174.45c.06-8.08-.24-16.18.3-24.23A52,52,0,0,1,51.87,101.9c14.92-.09,29.84,0,44.75,0q51.12,0,102.24.06c2.34,0,3.31-.73,4.06-2.92Q216,60.35,229.41,21.77A32.35,32.35,0,0,1,260.22,0q108.5,0,217,0C492,0,503.92,9.14,508.89,23.78c8.47,25,17.11,49.93,25.56,74.93.84,2.47,2,3.24,4.61,3.24q72.87-.14,145.74,0a52.19,52.19,0,0,1,49.5,34.34,49.91,49.91,0,0,1,3.11,17.62q0,191.86,0,383.72a52.14,52.14,0,0,1-51.14,52.17c-1.75,0-3.5,0-5.25,0Zm0-410.29c-91.89.07-165.61,74.53-166.37,164.85-.78,92.11,73.9,167.69,166.18,167.77,91.85.08,166.51-74.59,166.52-166.46C535.13,254.2,460.36,179.51,368.79,179.5Zm257.6-.84c-2-2.06-3.71-4-5.59-5.73-8.2-7.62-17.76-11.36-29-9.66-18,2.71-29,22.25-26.18,38.45,1.59,9.07,5.5,17.09,10.76,24.48,13.19,18.53,30.8,32.36,49,45.57a2.84,2.84,0,0,0,2.6-.17c15.2-11,29.91-22.6,42.17-37,7.91-9.26,14.4-19.3,17.07-31.49,3.29-15-5.4-32.2-19.54-38.09-11.88-4.95-26.37-1.46-36.39,8.76C629.74,175.36,628.2,176.86,626.39,178.66Z"/></svg>