<svg id="Layer_1" data-name="Layer 1" xmlns="http://www.w3.org/2000/svg" viewBox="0 0 75.25 71.66"><defs><style>.cls-1{fill:#2e5e69;}</style></defs><title>Artboard 1</title><path class="cls-1" d="M75.16,27.19a1.86,1.86,0,0,0-1.49-1.26L49.91,22.48,39.28.94A1.93,1.93,0,0,0,36,.94L25.34,22.48,1.58,25.93A1.84,1.84,0,0,0,.09,27.19a1.8,1.8,0,0,0,.47,1.88l17.2,16.77L13.69,69.51a1.84,1.84,0,0,0,2.68,1.94L37.63,60.27,58.89,71.45a1.82,1.82,0,0,0,.86.21,1.85,1.85,0,0,0,1.08-.35,1.83,1.83,0,0,0,.73-1.8L57.5,45.84,74.7,29.07A1.82,1.82,0,0,0,75.16,27.19Z"/></svg>